<svg width="1758" height="681" version="1" xmlns="http://www.w3.org/2000/svg" fill-rule="evenodd" clip-rule="evenodd" stroke-linejoin="round" stroke-miterlimit="1"><path d="M84 352l-4 8-6 12h-1l-4 7-7 17-8 18-1 5-2 6-4 13-3 11a398 398 0 0 0-10 40 340 340 0 0 1 611-299l9-10 2-4 6-7a433 433 0 0 1 30-26l7-3h3l3 1 9 1a52 52 0 0 1 9 1 183 183 0 0 1 39 12l6 6 7 10 1 5v5l1-1a171 171 0 0 1 2 23v22l-2-3-1 8 1 2v1l-1 4v1l-1 4a116 116 0 0 1-1 14l-1 3-1 4 1 4-2-1v14h-1l-1-3-1-3c0-1 0-2 2-3v-1l-2-5-3 13-1 3v3l1-2 2-5 1 5-2 9-3 9a92 92 0 0 1-5 13l-1 2-1 3-2-6-1-1 5-3-3-3-2 6v4l2 4-1 4-2 3-3 10-7 17-11 25-8 15a269 269 0 0 1-13 28l25-28a1066 1066 0 0 1 32-35h1l11-12 1 2h1l2-5 3-3 4-3a127 127 0 0 1 16-14l7-6 11-11 7-6a160 160 0 0 0 13-17l1-2 1 1 7-10 2 1 1-3 12 5 1 1 1 2 2-1-1 3 7 3 1 2 3-4v2l1 2 2-1 3 2 3 4-2 2c1 2 2 2 3 2l4-1c2-1 4-2 5-1l-3 3-3 3-13 14a2468 2468 0 0 0-37 71l-7 21-4 11a297 297 0 0 1-9 29l-1 1 1 2v2c-2 1-3 2-3 4v8h-2l1-19h3l-2-3c0-1 0-3 2-4l1-4v-1a32 32 0 0 1 1-9v-5l-1 3-1 3v2l1 1-1 1-4 2 1 3-2 10c0 3-1 4-2 5l-3 19 1 2 1 2 1 6a20 20 0 0 1 3-1h1l2-6 1 5 13-10 10-7 15-13 4-4 5-3 16-16a697 697 0 0 0 34-36l8-9 4-5 5-4 10-13 9-13 7-11 8-11 10-16 1 2c2-7 4-13 9-18l3-6a375 375 0 0 1 9-18l15-28a291 291 0 0 0 25-91v-7l-2-7c-2-8-6-15-10-22l-5-3-5-2 1 2v3l-2 4h-2l-5 7-1-3-3 7-3 1v4h-2l-1 1-3 7h3l-4 1 1 1-2 18-1-1h-1l1 3c-1 0-2 2-2 6l1 6a294 294 0 0 0-9-7l-6-9c-1-3-2-6-1-9l-1-7a71 71 0 0 1-1-11c0-9 3-16 8-22 6-5 11-9 18-12h1l8 2 4 1c1 0 2 0 3-2l14 8 15 13c5 5 7 8 6 9l3 4 2 4 2 1 1 1a38 38 0 0 1 4 17l1 3 1 8v1l1-1 1 3v3l-1-3v11h-1v6l1 1-1 1-2 1 1 2a822 822 0 0 0-5 12h1a213 213 0 0 1-3 9 112 112 0 0 1-1 15l-2 4a47 47 0 0 0-6 10l-1-1 1-6-2 2-1 2 1 2-3 13-4 12-1 3-2 3v4l-1 2-2 2a82 82 0 0 0-5 2l1 4h-2l-1 5-1 4-2 3-4 1-1 3a24 24 0 0 1-3 5l-1 2-3 7v1l-1 1-3 3-1 4-4 6-3 6a127 127 0 0 0-7 13l-3 3-1 6-1-2-10 13-2-1v2l-8 10-8 11h-1l-6 7-5 7a185 185 0 0 0-7 8l-3 1-1 3-2 2-6 6-6 4-4 4a214 214 0 0 0-10 15l-7 6-7 6-1-1-2-1-6 10-1-1v-3l-4 4 3 1-12 10-1-2h-3l-3 5 3-3h4l-12 10-8 6-2 2-3 2-7 2-13 3h-2l-4-1-6-4-9-7h-1l-3 1v1a163 163 0 0 1-15-7c-6-5-10-11-12-17-2-4-2-8-2-12l1-8v-1-4a336 336 0 0 1 8-40l2-5h1l2 3h1l-3-5 2-8 2-5 2-5 4-10 2-2v3l4-3v-4 1c0 2-2 3-4 3l1-5 1-3 2 1-1-2 3-10-4-1-1 2-3 8h-1v-2h-1v2l-1 2-4-1-3 4h-1a61 61 0 0 1-2 5 110 110 0 0 0-7 11l-6 6-12 10v-1l-8 13h-1l-3 5-4-3a20 20 0 0 0-1 4l2-1 1 1-3 1-1-1-2 4-1 3-3 3-3 2v2h-3l-1 3-7 10-2-3v4h-2l-4 3-2 5-2 5-4 4-3 3-5 6-3 3-4 5v1l-9 11v-3 1h-1l-9 11-2 3-2 2-2 1-1-1v-1l-2 1-1 2-1-2-15 5 2-4-3 4v-7l-2-1a340 340 0 0 1-561 69l3-1c3 0 5-1 5-4v-2-2h2l-1 4 11-13 1 1 7-8h1l1-3h1l7-6 6-8 3-4 1-2 2-7 2 1v-2h1l1-4c4-1 6-3 8-5l7-8h1a154 154 0 0 1 5-10l2-3 7-7a295 295 0 0 1 18-25l5-6 3-3 3-3 4-3 1-4v-3l1 1 11-17h1l-1 3h1l3-8 4-4-1-1 4-3 1 2 1-4 2-1-3-1 3-2v2l6-6 3-7 2-7 1-6 2-5 10-7 1 4 3-5h-1v1h-5l1-1 1-2-3 1 3-3h1l2-2 2 1 3-3 3-5 1-3 2 2-3 1 1 2-2 1v1l-2 1v1l3-1-3 2v1l-6 18-3 7-5 13-3 6-2 7 2 5-2 5-1-7h-1l-7 21h-1l-1 9 1 1 1 1h-2l-1-1v3h3l-1 4-4-1-1 8c0 7 1 12 5 16 3 4 8 6 16 6a38 38 0 0 0-3 9c0 2 1 3 3 3h2l2 1 4 3 4 2h5v-3l2 3 1-3h2l9-19 4-6a48 48 0 0 0 6-11l2-7 3-4 4-4 1-4 2-6a90 90 0 0 0 5-10l4-4 4-3 2-3c0-2 1-3 3-5l3-4 3-6 3-5 6-13h-1v-1l4-2 4-11h3l2-2v4h1a300 300 0 0 1 7-14l2-4v3l1-2a154 154 0 0 1 5-11l3-3 3-3 1 4v1l-1-1-3 5h1v8l-2-4-8 26 1 2v3l-1 12v12l1 10 7 11c3 3 7 5 11 6 3 1 7 3 10 7 1 2 4 3 6 4l5 2 4 2h7l4-1a128 128 0 0 0-1 7c0 6 2 11 7 16a83 83 0 0 0 30 11l8 1h4c2-1 3-2 3-5l-2-1-1-1 2-4c2-5 6-10 11-14l4-4 2-5-1-2h2l2-2 1-1 4-1 2-3-2-2c4-5 8-8 13-11l1-2 1-3a62 62 0 0 0 4-4l2-3v-1-1l6-6a226 226 0 0 1 4-7l4-2 3-2 2-2 3-3 5-3-1 1-4 8a198 198 0 0 0-12 23l-8 16-12 23-3 4-12 11-2 2-3 2-1 1 1 2v2l-1 1h-2l-1-1-3 3-3 4-7 9-5 7-8 12a1420 1420 0 0 1-19 30v6a37 37 0 0 0-3 10v1c2 8 6 15 12 22a139 139 0 0 0 25 20l4 3 4 2c2 2 3 3 6 3h2l4-1 1-4 1-4h1l2 1 2-1-2-10 1-3 1-3a62 62 0 0 1 1-12l-2-5c-2 0-2-2-1-3l8-20 2-3 1-5 2-10 4-8 4-9 4-8a51 51 0 0 1 7-13l1-2v-1c0-2 0-4 2-6l2-5a230 230 0 0 0 8-18h4l3-1 3-2a10 10 0 0 0 6-6l2-3-2 1-2-1c1-4 3-7 5-9l2-1 1-1 4-3 4-5 3-2 4-2c1-2 2-3 4-3l1-1c0-1 0-2 2-3a57 57 0 0 0 7-9l6-6 3-2 3-4 1-2 4-1 3-3c0-1 0-2 2-3l6-5 9-5 1-1 16-15c4-4 7-6 11-6l-1-1-1-3-1-1-9-6h-4a677 677 0 0 0-48 35l7-14 7-8 1-2 2-3 2-2 4-5 5-4c4-5 9-9 15-13l-3-7-6-4-8-5-8-5-5-2c-4 0-7 1-8 4s-3 4-5 6l-3 3-4 3-5 5-11 10-6 5-16 16-8 8-23 22-12 12-17 19-16 17-9 9h-2l-1-2 2-4 2-5 1-5 3-3 1-2 2-1 4-11 1-3 2-4 1 1h1v-3l2-3 7-11 5-7 4-7 8-12 16-22-3-3c-2 0-4-2-6-4l-11-6-8-3-3-1-6 3-6 8-2 3-3-1-1 1 1 4-1 1-2-2 2-3-4 3-2 2v1l-2 2-6 11h-1v-3l-3 6-4 6-1 1-1 1-8 14a157 157 0 0 1-21 29l-8 10c-4 5-8 7-12 7l-5-1v-1-2l-3-9v-3l1-1 1-1 1-16v-1l-2 1 3-12h1v-4l1-5v-1-1l1-4 3-7a368 368 0 0 1 30-59l2-1 7-15 3-4a88 88 0 0 0 5-4l2-2 2-7 4-7 11-13 5-5 3-5a71 71 0 0 1 6-8v-1l11-13 1 2 1-2 1-4h-1l-2-1-2-3-2-2a54 54 0 0 0-12-6l-5-2c-1-1-2-2-3-1l-2 2-1 2-7 5-1 2h2l-3 4v-3l-1 4v1h-1l-2 1-3 2-1 5-1-4-19 27 1 1h-2l-6 9-14 23-7 11-1-1-2 1-4 5h-1v5l-2-3-6 8-1-2-1 5c-3-1-4 0-4 2v2h-2l-3 1v3l-13 16-1-2-1 6-1-3-8 12-1-1-18 23v-1l-14 21-23 30-3 7-11 15h-2l3-13 2-10h2v6l6-12 1 3 8-24v1h1l1-5 1-2h1l2-7v-2 3l7-21 1 5 1-6h1v3l5-18 3 5 2-9 2 2-2-9 2 4 2-7 1 2 1-7-2 1-1-1 7-4h-3l9-13 1-1 1-1v-3l1-2v-2l1-6 2 1-3 5 1-2v2l4-7-1 3 1 1 1-4-2-1 3-2v2l1-1h1l11-19c3-5 4-10 5-15l2 3 14-27h2a167 167 0 0 0 15-24l7-13v-2l1 3v-1a300 300 0 0 0 11-20v-2l1 1v-2l1-1 6-8 13-17a22360 22360 0 0 0 13-23v-7l-14-9-3-1-4 1h-4l-3-2h-3l-10 13-3 3-5 11-1-2v2l-4 6-32 46-8 12-3 6-14 23-11 18-2 5-4-2v2l-1-1h-1l1 1-5 5v-1l-3 9v-4l-13 21-3 4h1l-7 10-1 4-1-3-3 7 1 3-2-3-26 32-26 33-7 7-3 5a7486 7486 0 0 0-12 15l-2 1 2 3-3-2-80 94h-1c0 2-5 6-14 15a396 396 0 0 1-45 35l11-63 1 2 2-3-1-1 3-6a689 689 0 0 1 10-25v3l2-5v-2l1-1 8-22 2-4 1-4 3-3 2-2a64 64 0 0 0 4-10 25 25 0 0 0 3-6v-2l1-1a373 373 0 0 0 7-11c3-2 5-4 5-7v-3-2l3-2 3-1 1-4 2-3a263 263 0 0 1 8-10l2-6 3-6 3-3 1 1 1-2 2-4 4-6 6-7-1-1 28-24 7-5 1 1 16-13a114 114 0 0 1-1 11l-1 2-1 3-2 2a267 267 0 0 0-7 18l-6 10-3 5-3 4-5 11-8 10-2 4h-1v1l-4 4c-3 1-4 3-5 4l-2 7-1 6-2-6-2 1 2 1-3 5h-1l1-3-5 8 1 1v1l6-2 5-4 9-6-1-1 4-4-1 4v1l14-11v1l10-10v1h2l1-2 10-7 1 2 13-9-1-2 2-3h1a72 72 0 0 0 22-32v-4-4l1-4 1-4v-5l2-3-2 1a107 107 0 0 1-1-5l-5-3-5-2-5-3a67 67 0 0 0-24-6l-7-1-3-1-2-1-13 5a175 175 0 0 0-24 17l-3 1-18 16-6 7-9 11-5 6c-6 5-10 9-11 13l-6 9-4 5 1 1-3 3-1-1-7 12-1-1-4 8-7 15zm400 210l1-2-1 2zm11-47l-1 2 1-2zm1-3c1-2 3-5 3-8l2-7-3 8-2 7zm712-266l6-8 2-4 3-2 13-14 5-6 6-7 7-7 8-8 2-1 1-3 6-6 6-5h4l3 2 6 5 6 5 2 2 2 2v2l3 3c2 1 4 2 4 4l-4 4a258 258 0 0 0-35 33l-12 14-5 8-5 7-13 16-6 8-6 7-9 13-9 13-9 13a232 232 0 0 0-10 17l-3 8a196 196 0 0 1 41-35 206 206 0 0 1 22-9l2 1h1a447 447 0 0 1 37 21l3 2h3l3-1 3 2 2-3 1-2h2l1 1 2-5 1-1h1l1 1c0 1 1 1 1-1h1l1 1 2-1-2-2 2-2a179 179 0 0 0 13-5l3 1v-1l1-2h1v-2c0-2 1-2 2-2l2-7 3-5c1-4 4-7 7-10l9-11c3-3 6-7 11-10l11-7 5-1c2 0 4 1 5 3a45 45 0 0 1 8 10v3l-1 2v2l4 2 2 2h3l4 2a48 48 0 0 0 4 2l2-2h1l5 3 4 1 7 8v2l-3 4-2 3-2 6-3 3a80 80 0 0 1-5 6l-5 5-6 5-1 1-2 1c0 2-2 4-4 6l-5 4c-1 2-4 3-7 3v1c0 1-1 2-2 1h-1v1a28 28 0 0 1-11 7l-1 1-4 2c-2 0-3-1-3-2-4 2-6 5-8 10l-5 10-1 4-2 6-2 10-2 7 16-10c7-5 12-10 16-15l-7 4-5 4-1-1-1-2 2-2a132 132 0 0 0 13-9l4-3 9-8 10-7 9-9a316 316 0 0 0 35-34h1l5 3a549 549 0 0 1 11 9c1 2 3 4 6 5l2 1 1 3c0 6-3 11-9 14l-1 2-2 6-3 2-2 2-2 2-6 7-4 6-1 3h-2l-1 1-2 1-1 2-3 8-3 7c-2 4-4 7-7 8-2 0-3 2-3 4l-2 6a180 180 0 0 1-5 9l-7 20v3a606 606 0 0 0 43-31l5-5 16-16 10-9a323 323 0 0 0 20-20v-2h1v-1l5-2 2-4 5-6a391 391 0 0 1 29-47l11-15 5-7c0-2 2-4 5-7l5-8-2-1-2 1-21 3-11 3-1 2-6-1-16 4v1l-1 2-1 2-1 1c-2 0-4 2-5 5l-1 1-2 1-3 3-2 5-2 4-3 2-3 2-9 1c-2 0-3 0-4-2a29 29 0 0 1 0-9l2-9h-14a185 185 0 0 1-23 0l2-2-3-1-3-1c0-2 0-4-2-5l-5-5-2-5-6-12-2-4 2-1 2 1h2c3 2 6 2 9 2l6-1h9a86 86 0 0 1 19-3l5-1h7l9-2 4-1a46 46 0 0 0 7-1 116 116 0 0 1 14-10l3 2 7 5 2-1 8-1a371 371 0 0 0 12-2l5 1-7 1-7 3 5-1h8a18 18 0 0 1 6-1l1-1 8-1 8-1h6l6-1 3-1h6l3-2 11-14c4-6 8-11 12-14l10-13 13-16c3-4 6-5 9-4l2-1 1-1 7 4c5 1 10 3 16 8l6 10v2l-3 6-10 7-14 13a479 479 0 0 0-6 11h2a451 451 0 0 1 55 5 410 410 0 0 1 32 11l6 3a88 88 0 0 1 14 10l3 3 2 3a359 359 0 0 0 1 11l-1 7c-2 0-3-1-3-2a47 47 0 0 0-2-5l-1-1a2453 2453 0 0 0-20-12l-7-1-6-2-9-1h-8l-3 1h-3l-2-1-3-1-10-1c-6 0-10 0-13-2h-2l-3 1-1-1-2-1-3 1-3 1h-19l-15 1-24 28-8 12-4 7-7 9-6 10-6 7c-3 2-5 5-7 9l-3 4a44 44 0 0 0-6 5l-2 3c0 3-1 5-3 6-3 3-4 5-4 7v2l-2 1-3 2-1 3-4 10-9 19-6 17c-1 6-3 10-5 14l-2 10-2 7-2 2v4h1l8-3a129 129 0 0 0 36-31l16-17 13-14 6-7 3-5 1-2c2-7 5-12 9-17l2-3 2-3c1 0 2 1 1 3h1v-1h1l-1-2-1-1 5-8 10-13 7-8 8-6a288 288 0 0 0 10-12l5-3 5-3 6-4a52 52 0 0 1 11-4h3c2 0 5 1 8 4l7 8c1-2 2-2 3-2l6 3 6 6 8 8c3 4 5 8 5 12l-3 8-1 3-1 3-1 1 1 2v1c0 2-1 3-2 3h-2c0 4-1 8-4 13l-5 7-2 3c-2 0-4 2-6 5a42 42 0 0 1-8 6l-4 2-4 5-11 8a189 189 0 0 0-10 7c-3 2-6 4-9 4l-4 1-2 1-2-1-3-1-8 1c-4 0-8-2-10-5a25 25 0 0 0-5 11l-3 7c0 2-2 3-3 5l-1 4v8l1 2-2 3v2l4 12c13-5 22-9 28-14a402 402 0 0 0 117-128h2l3 2 4 4 1 1 2 2v2h-5l2 5-2 4-2 4a326 326 0 0 1-31 45l-3 3-2 2c-1 1-2 3-1 4v1l-3 2c-2 0-4 1-5 3l-5 5-2 2c0 4-3 8-10 11l-5 4-4 4-9 9-5 5-5 4-12 9a169 169 0 0 1-7 7 25 25 0 0 1-13 8l-4 2-9 2-12-3-13-5a43 43 0 0 1-23-32v-5l-9 9-7 6-5 6a229 229 0 0 1-19 18c-6 4-12 6-17 6l-7-1c-7-2-11-6-13-11 0-2-2-3-4-4l-8-3-5-5-4-12a72 72 0 0 1 3-22l-2 1-4 5-5 5-1-1v1c0 3-1 5-4 6v-1-3l1-3-5 4h-1l-5 4c3 1 4 0 5-1 0-2 1-2 3-2 0 3-1 6-3 7l-10 10c-3 4-6 6-9 7l-2 1-7 5c-3 1-4 3-4 5h-2l-2 1-8 2-11-3-5-3a131 131 0 0 1-5-4h-2-1l-3-1-4 1-3-3c-2-1-3-2-3-4-2-5-3-11-3-18 0-8 1-16 4-24a153 153 0 0 1 9-24l-2 2c0 1-1 2-3 2l-3-1 1 1v2l-5 4-4 4-7 5a69 69 0 0 1-12 7l-6 6-3 2-3 1-5 5-1 8-1 1-2 3v2l-4 13a180 180 0 0 0-4 11 26 26 0 0 0-4 8l-4 3-2 3-1 3-3 3-4 2c-2 2-5 3-8 3h-14l-7-1-7-1-1-1-9-5-8-5-7-2-5 1-8 4-7 2c-5 3-10 4-14 3-4 0-8-2-12-4l2-1h1l8-2 7-2 15-6 8-4 14-6a135 135 0 0 0 25-15l14-8c3-1 5-4 7-8l6-26v-4l-1-3h1l2-1v-1l-1-1 3-9a265 265 0 0 0 3-19c2-2 2-3 1-5l1-2 1-1 1-2v-4l1-5a22 22 0 0 0 3-7l-9 4-8 3a195 195 0 0 0-10 6l-6 3-2 3-2 6-3 6c-5 11-11 21-19 30l-8 11a125 125 0 0 1-7 8l-4 2-3 5-5 8-1 1-3-1-6 7a205 205 0 0 0-9 9c-4 1-6 3-8 5l-8 9h-3c-2 0-5 0-7 2v1c-2 1-3 2-4 1h-5l-10 3h-2l-6-2-8-3-10-3-2-1-3-1 1 4-1 2v8l-2 1h-3l-5-1-2-5-3 1h-4l-3-2-2-19a147 147 0 0 1 6-47l-5 5-1 2c0 4-4 8-10 11l-5 4-5 4-8 9-5 5-6 4-11 9a174 174 0 0 1-8 7 25 25 0 0 1-12 8l-4 2-9 2-12-3-13-5-8-5a43 43 0 0 1-15-41l1-8 1-9 1-1a1415 1415 0 0 0 25-50c2 0 2 1 2 3h1l-1-1h2l-1-2-1-1c0-2 2-4 5-8l10-13 6-8 8-6a260 260 0 0 0 11-12l5-3 5-3 6-4a53 53 0 0 1 11-4h2c3 0 6 1 8 4l8 8c1-2 2-2 3-2l6 3 6 6 7 8c4 4 6 8 6 12l-3 8-1 3-2 3v3l1 1c0 2-1 3-2 3h-2c0 4-2 8-4 13l-5 7-2 3c-2 0-5 2-7 5a42 42 0 0 1-7 6l-5 2-4 5-10 8a171 171 0 0 0-10 7c-3 2-6 4-10 4l-4 1-1 1-2-1-3-1-8 1c-5 0-8-2-10-5a25 25 0 0 0-6 11l-2 7-4 5v14l-1 3v2l4 12c13-5 22-9 28-14a401 401 0 0 0 112-124c0-2 0-3 2-5l4-3v-3l4-9 7-10a162 162 0 0 0 11-14l2-3 1-3 9-13a47 47 0 0 1 11-13l6-9 1-1zm75 216l1-2-1-2-6 5a479 479 0 0 1-33 17l7 3 7 4h3c5-2 9-5 12-9 3-3 7-9 10-16zm-773 13l3-1 1-5-3 3-1 3-2 7 1-2 2-2-1-3zm722 5h0zm269-6v2l1 1c5 1 10 0 14-2l14-10-4 1-3 2-2 2-9 5-4-1-6-1-1 1zm-110-9c3 0 6-1 8-3l-3-1-3 1v1c0 1 0 2-2 2zm-874-2l2-4 2-7c-2 3-4 7-4 11zm975-1a192 192 0 0 1 14-42l5-15h-1l-2 1-1 1-3 1-1 3-1 1-1 1v2l-1 3-1 2-1 3a767 767 0 0 1-7 19l-1 4-1 4 1 7 2 5zm-668-3h-1v-7h1v7zm336-4c12-9 23-20 32-33h-1l-11 8-7 8c-2 3-4 4-6 4l-3 2-2 3-2 5v3zm-626-11h1v-1c0-1 0-2-1-1l-1 1 1 1zm897-6c2 0 3-1 5-3l3-5c-5 2-8 5-8 8zM267 420v5l1-1v-1l1 1-8 12-1-8 3 3 2-11h2zm1193 12l2-1 1-1h-3v2zm-129-2h1l1-1h-2v1zm-184-4h-1v1h1v-1zm331-15c-4 3-7 6-9 10 1 2 2 2 3 1l2-2 4-9zm-235-58l3-6 2-8-2-6-5 3-6 3-4 1-1-1-4 1-2 2-4 3-6 5-6 4-4 4-3 3-6 6-8 8-17 20-6 7-1 2-2 3-10 15 5-4 4-3 4-2c2-3 7-6 13-10l11-8a304 304 0 0 1 43-24h2l1-3 1-2c4-4 6-8 8-13zm76 64v-3 1l-1 1v1h1zm-1036-7l-1 5h-1l1-5h1zm544-5l5 3a149 149 0 0 1-1-10l-2 1v6h-2zm495 3l4-12 3-7-1-1-7 19 1 1zm-647-4l3-6 12-26 6-13 13-31 12-29a354 354 0 0 0 12-34l1-8 2-4 1-4 1-16 1-10a306 306 0 0 0 1-43c0-6-1-12-3-17-2-7-5-11-9-14l-3-1-3-1 1 4-5-1-2 5-1 4-2 4-3 3 2 3-4 2-4 3h5l-12 12 4 1-8 9-1-1-4 8v-2h-1v3h-1a282 282 0 0 0-17 24l-3 2-3 1v1a335 335 0 0 1 3 5v-1l1-3 3-1 3-3a131 131 0 0 1-7 12 340 340 0 0 1 9 163zm623-2h1-1zm-1-4l2 1-1 2v1h-1v-4zm-271 4l14-7 18-14c13-11 25-24 34-40l5-15 1-2c0-2-2-3-4-3l1 1h0l-4 4-3 3-5 5c-7 3-13 7-17 14l-1-1h-1l-2 5-3 3-4 4-3 4-3 4-5 1-1 5-1 3-1 4-2 3-2 3-3 1-3 4-2 3-1 4-1-1h-1v5zm590 0l14-7 18-14c14-11 25-24 34-40l6-15v-2c0-2-1-3-4-3l1 1h1c0 1 0 1 0 0-2 0-3 1-4 4l-3 3c-2 2-3 4-6 5-6 3-12 7-17 14l-1-1h-1l-1 5-4 3-4 4-3 4-3 4-5 1-1 5-1 3-1 4-2 3-2 3-3 1-3 4-1 3a968 968 0 0 1-4 3v5zm-270-1h-1l-1-1 4-4 5-3c2 2 2 3 0 5l-7 3zm-511-10l-3 2-2 3 2 3 3-8zm-151-2h-1v9h1v-9zm696 4l-3 2 3-2zm-619-1l-1-1 1-1v2zm439-2h1-1zm-360-11l-5 4 3 1v3h2v-8zm644 3l-2 1v2l2-3zm-112 2h-1 1zm-1141-1v-5h-1l-1 5h2zm3-12h-1v7h1v-7zm539 7l1-2 2-2-1-1-3 3 1 2zm71-13h-1l-3 9h5l-1-9zm-589 0l1 5h-2l-1-5h2zm596-16c-3 5-4 9-4 13v5l2-4 2-4-1-1v-2l1-3 1-4h-1zm457 14v1l-1 1-1-1 2-1zm-131-2l-4 1-1 3 2-1 3-3zm-641 3l2-4-2 2v2zm-419-4l-1 3-1-3h2zm1243-2l-2 2-1 2 5-2 2-3 5-2 1-5-4 3-2-1v2h-2c0-2 1-3 2-2v-1l5-6 5-6 5-7 2-3 2-5a74 74 0 0 0 9-17l-1-2-3 3c-1 2-2 4-5 5l-7 10-8 13-4 5c-1 3-2 5-4 6l-1 4-1 1-1 5 3-2 2-1 1 4h-3zm-580-2l1 1 1 1 2-2-2-2-2 2zm-554-5h-2l-2 7h1l3-7zm564-1l-2-1h-2-1v5l1 1 1-1 2-2 1-2zm64-8h4l-3 7h1l3-5 2-5-2-1 1-4h-1l-5 8zm-729 7h1l2-3-1-1-2 4zm1252-4h-1v1h1v-1zm-85 0h-1l1 1v-1zm-1034-4l6-7-1-2-5 4-1-1 1 6zm1045-1v1h1-1v-1zm-1063-8l-1 5-1-1 1-4h1zm1148 2l-1 1 1-1zm-1122-4l3-4 4-8-2 2v-6h-1-1v12h-2l-2 1-1 6h1l1-3zm478-6l5-5-5 1v4zm-470-6l1 3-2 1 1-1v-3zm3 0l-1-4-1 7 2-3zm95-3l-4 1-2 4 1 1 5-6zm959 2h-3l-1 4 1-1 3-3zm-513-3l-1 5h2l1-5h-2zm623 5h-3 3zm-108-8v-1 1l-1 1-1 3 2-4zm-1122 2l3-2 4-6-2-1-5 9zm661-2l1 1 5-7h-1l-5 6zm-511-5l-4 2v2l3-2v1l1-3zm1039 1c2-1 2-2 2-3l-2-2v5zm-59-9l1 1v-1h-1zm110-6l2-2 2-1-2-1h-2l-3-1 1 3 2 2zm-1075-3l1-1v-1l-2 1 1 1zm-86-5h1l4-8v-1h-1l-4 9zm-8-5zm470-22a688 688 0 0 0 1 1l-1-1zm879-1l2 1 4-1-2-1h-2l-2 1zM444 244l-1 2v2h-2l-1 1 3-5h1zm1101 3l-1-2 1 2zm-4-2l-2 1 2-1zm2-1h1v1l-1-1zm-2 1l2-1-2 1zm-767-12h-1l-1 6h1l1-6zm-95-12l-6 8c0-4 2-7 6-8zm-312-1v4l-1 1 1-5zm315 2v-3l-3 2 3-7c0-2 1-3 2-3l3-1-3 6 1 3-1 2-2 1zm94-13h-1v12h1v-12zm-91-2l5-3 1 1a19 19 0 0 0-5 3l-1-1zm91-3l-2 1 1 1 2 2h1v-2l-1-1-1-1zm-86-42l-1-1-6 7h2l5-6zm20-16l-2-1-2 9h1l3-8z" fill="#fff" fill-rule="nonzero"/></svg>