<?xml version="1.0" encoding="UTF-8" standalone="no"?>
<!DOCTYPE svg PUBLIC "-//W3C//DTD SVG 1.1//EN" "http://www.w3.org/Graphics/SVG/1.1/DTD/svg11.dtd">
<svg width="100%" height="100%" viewBox="0 0 1205 246" version="1.1" xmlns="http://www.w3.org/2000/svg" xmlns:xlink="http://www.w3.org/1999/xlink" xml:space="preserve" xmlns:serif="http://www.serif.com/" style="fill-rule:evenodd;clip-rule:evenodd;stroke-linejoin:round;stroke-miterlimit:2;">
    <g>
        <path d="M235.938,0L235.938,169.589C235.938,124.375 208.032,98.997 173.226,98.997C154.622,98.997 139.619,106.289 124.616,120.583L122.216,101.039L89.51,101.039L89.51,245.14L79.908,245.14L79.908,100.747L43.301,100.747L43.301,245.14L0,245.14L0,0L235.938,0ZM199.331,245.14L125.817,245.14L125.817,171.631C125.817,149.753 141.12,131.376 163.624,131.376C187.028,131.376 199.331,148.003 199.331,169.881L199.331,245.14ZM40,60.784C40,33.072 83.208,33.072 83.208,60.784C83.208,88.496 40,88.496 40,60.784Z" style="fill:white;"/>
        <path d="M345.618,111.248C328.515,96.663 311.112,92.288 288.007,92.288C261.002,92.288 225.595,103.956 225.595,137.21C225.595,169.881 258.901,179.798 286.807,181.84C307.811,183.007 316.212,187.091 316.212,197.009C316.212,207.51 303.31,214.511 289.507,214.219C273.004,213.928 249,205.468 238.498,194.092L220.494,219.47C242.098,241.348 265.503,245.14 288.907,245.14C331.215,245.14 352.519,223.262 352.519,197.884C352.519,159.671 317.113,153.545 289.207,151.795C270.304,150.628 261.602,145.378 261.602,136.043C261.602,127 271.204,121.75 288.607,121.75C302.71,121.75 314.712,124.958 325.214,134.585L345.618,111.248Z" style="fill:white;fill-rule:nonzero;"/>
        <path d="M354.32,96.372L354.32,171.922C354.32,216.553 380.125,242.515 415.532,242.515C436.236,242.515 450.338,235.514 465.641,220.929L468.042,240.473L500.748,240.473L500.748,96.372L464.441,96.372L464.441,169.881C464.441,191.758 449.138,210.136 426.634,210.136C403.229,210.136 390.927,193.508 390.927,171.631L390.927,96.372L354.32,96.372Z" style="fill:white;fill-rule:nonzero;"/>
        <path d="M510.65,96.372L510.65,240.181L547.257,240.181L547.257,164.338C547.257,137.793 564.96,127.875 584.164,127.875C596.166,127.875 603.068,131.084 610.569,137.21L627.072,106.289C618.971,98.413 604.268,92.579 588.965,92.579C573.962,92.579 558.659,95.205 547.257,112.999L544.557,96.372L510.65,96.372Z" style="fill:white;fill-rule:nonzero;"/>
        <path d="M737.494,116.207C729.092,101.914 710.188,92.871 690.385,92.871C647.176,92.579 613.27,118.541 613.27,168.13C613.27,218.595 645.676,244.848 689.484,244.556C705.988,244.265 729.092,236.097 737.494,219.178L739.294,240.181L773.801,240.181L773.801,96.372L738.694,96.372L737.494,116.207ZM693.685,124.667C751.296,124.667 751.296,211.886 693.685,211.886C669.381,211.886 649.877,195.55 649.877,168.13C649.877,140.71 669.381,124.667 693.685,124.667Z" style="fill:white;fill-rule:nonzero;"/>
        <path d="M927.73,240.181L927.73,164.63C927.73,119.416 899.825,94.038 865.018,94.038C846.415,94.038 831.412,101.33 816.409,115.624L814.009,96.08L781.302,96.08L781.302,240.181L817.609,240.181L817.609,166.672C817.609,144.794 832.912,126.417 855.417,126.417C878.821,126.417 891.123,143.044 891.123,164.922L891.123,240.181L927.73,240.181Z" style="fill:white;fill-rule:nonzero;"/>
        <path d="M1039.05,198.467C1030.05,207.219 1018.35,210.427 1006.65,210.427C983.841,210.427 964.638,195.842 964.638,168.422C964.638,143.336 982.641,125.833 1007.25,125.833C1017.45,125.833 1028.25,129.626 1036.95,137.21L1060.06,113.582C1043.85,98.122 1027.65,92.288 1006.65,92.288C963.737,92.288 928.031,117.374 928.031,168.422C928.031,219.47 963.737,244.556 1006.65,244.556C1028.55,244.556 1046.55,238.139 1063.66,221.804L1039.05,198.467Z" style="fill:white;fill-rule:nonzero;"/>
        <path d="M1204.08,180.965C1209.79,121.75 1178.88,91.996 1129.37,91.996C1081.36,91.996 1050.75,123.5 1050.75,167.255C1050.75,213.344 1081.06,243.973 1132.07,243.973C1154.57,243.973 1180.08,236.389 1195.68,220.637L1172.28,198.176C1163.88,206.635 1146.17,211.594 1132.67,211.594C1106.87,211.594 1090.96,198.759 1088.56,180.965L1204.08,180.965ZM1089.16,151.503C1094.56,132.834 1110.77,123.5 1130.57,123.5C1151.57,123.5 1166.58,132.834 1168.98,151.503L1089.16,151.503Z" style="fill:white;fill-rule:nonzero;"/>
    </g>
</svg>
