<svg width="1200" height="1200" xmlns="http://www.w3.org/2000/svg" fill-rule="evenodd" clip-rule="evenodd"><path d="M1374 732l-214 386 286 38-72-424z" fill="#2b75b5" fill-rule="nonzero" stroke="#2b75b5" stroke-width="3"/><path d="M1088 504l286 228 6-324-292 96z" fill="#508cc3" fill-rule="nonzero" stroke="#508cc3" stroke-width="3"/><path d="M1160 1118l204 332 82-294-286-38z" fill="#1c68ae" fill-rule="nonzero" stroke="#1c68ae" stroke-width="3"/><path d="M1160 1118l-116 296 320 36-204-332z" fill="#1e6ab0" fill-rule="nonzero" stroke="#1e6ab0" stroke-width="3"/><path d="M1088 504l2 188 284 40-286-228z" fill="#498ec5" fill-rule="nonzero" stroke="#498ec5" stroke-width="3"/><path d="M1090 692l70 426 214-386-284-40z" fill="#3883bf" fill-rule="nonzero" stroke="#3883bf" stroke-width="3"/><path d="M1270 120l-182 384 292-96-110-288z" fill="#6498c8" fill-rule="nonzero" stroke="#6498c8" stroke-width="3"/><path d="M982-52l288 172 36-302L982-52z" fill="#82a6d3" fill-rule="nonzero" stroke="#82a6d3" stroke-width="3"/><path d="M988 102l100 402 182-384-282-18z" fill="#71a2cf" fill-rule="nonzero" stroke="#71a2cf" stroke-width="3"/><path d="M982-52l6 154 282 18L982-52z" fill="#80aad4" fill-rule="nonzero" stroke="#80aad4" stroke-width="3"/><path d="M764 1000l-72 306 352 108-280-414z" fill="#3982be" fill-rule="nonzero" stroke="#3982be" stroke-width="3"/><path d="M988 102L694 362l394 142-100-402z" fill="#71abd3" fill-rule="nonzero" stroke="#71abd3" stroke-width="3"/><path d="M752 802l12 198 326-308-338 110z" fill="#4a96c9" fill-rule="nonzero" stroke="#4a96c9" stroke-width="3"/><path d="M1090 692l-326 308 396 118-70-426z" fill="#3c8ac2" fill-rule="nonzero" stroke="#3c8ac2" stroke-width="3"/><path d="M764 1000l280 414 116-296-396-118z" fill="#307dbc" fill-rule="nonzero" stroke="#307dbc" stroke-width="3"/><path d="M694 362l58 440 336-298-394-142z" fill="#60a4d1" fill-rule="nonzero" stroke="#60a4d1" stroke-width="3"/><path d="M1088 504L752 802l338-110-2-188z" fill="#5098ca" fill-rule="nonzero" stroke="#5098ca" stroke-width="3"/><path d="M686 136l8 226 294-260-302 34z" fill="#82b6d9" fill-rule="nonzero" stroke="#82b6d9" stroke-width="3"/><path d="M690-124l-4 260L982-52l-292-72z" fill="#91bcde" fill-rule="nonzero" stroke="#91bcde" stroke-width="3"/><path d="M982-52L686 136l302-34-6-154z" fill="#87b4da" fill-rule="nonzero" stroke="#87b4da" stroke-width="3"/><path d="M694 362L464 516l288 286-58-440z" fill="#6caed6" fill-rule="nonzero" stroke="#6caed6" stroke-width="3"/><path d="M464 516l-40 130 328 156-288-286z" fill="#6daed6" fill-rule="nonzero" stroke="#6daed6" stroke-width="3"/><path d="M752 802L388 964l376 36-12-198z" fill="#559dcd" fill-rule="nonzero" stroke="#559dcd" stroke-width="3"/><path d="M388 964l304 342 72-306-376-36z" fill="#4f95c8" fill-rule="nonzero" stroke="#4f95c8" stroke-width="3"/><path d="M388 964l136 412 168-70-304-342z" fill="#5291c6" fill-rule="nonzero" stroke="#5291c6" stroke-width="3"/><path d="M424 646l-36 318 364-162-328-156z" fill="#66a8d2" fill-rule="nonzero" stroke="#66a8d2" stroke-width="3"/><path d="M392 42l294 94 4-260L392 42z" fill="#9bc4e2" fill-rule="nonzero" stroke="#9bc4e2" stroke-width="3"/><path d="M686 136L392 42l302 320-8-226z" fill="#8fc0df" fill-rule="nonzero" stroke="#8fc0df" stroke-width="3"/><path d="M392 42l72 474 230-154L392 42z" fill="#8cbfdd" fill-rule="nonzero" stroke="#8cbfdd" stroke-width="3"/><path d="M388-232l4 274 298-166-302-108z" fill="#a8cce6" fill-rule="nonzero" stroke="#a8cce6" stroke-width="3"/><path d="M388-232L254-120 392 42l-4-274z" fill="#b3d3e8" fill-rule="nonzero" stroke="#b3d3e8" stroke-width="3"/><path d="M392 42L212 198l252 318-72-474z" fill="#9dc9e1" fill-rule="nonzero" stroke="#9dc9e1" stroke-width="3"/><path d="M388 964L50 1412l474-36-136-412z" fill="#6798c9" fill-rule="nonzero" stroke="#6798c9" stroke-width="3"/><path d="M64 940l-14 472 338-448-324-24z" fill="#77a5d1" fill-rule="nonzero" stroke="#77a5d1" stroke-width="3"/><path d="M124 676l264 288 36-318-300 30z" fill="#7bb4d7" fill-rule="nonzero" stroke="#7bb4d7" stroke-width="3"/><path d="M212 198l-72 296 324 22-252-318z" fill="#98c6e0" fill-rule="nonzero" stroke="#98c6e0" stroke-width="3"/><path d="M140 494l284 152 40-130-324-22z" fill="#86bcdc" fill-rule="nonzero" stroke="#86bcdc" stroke-width="3"/><path d="M124 676L64 940l324 24-264-288z" fill="#7fb3d7" fill-rule="nonzero" stroke="#7fb3d7" stroke-width="3"/><path d="M140 494l-16 182 300-30-284-152z" fill="#8bbddd" fill-rule="nonzero" stroke="#8bbddd" stroke-width="3"/><path d="M254-120l-42 318L392 42 254-120z" fill="#b1d2e7" fill-rule="nonzero" stroke="#b1d2e7" stroke-width="3"/><path d="M-142 1094l192 318 14-472-206 154z" fill="#82a7d4" fill-rule="nonzero" stroke="#82a7d4" stroke-width="3"/><path d="M-182 156l394 42 42-318-436 276z" fill="#bbd6eb" fill-rule="nonzero" stroke="#bbd6eb" stroke-width="3"/><path d="M-174-240l-8 396 436-276-428-120z" fill="#cadef1" fill-rule="nonzero" stroke="#cadef1" stroke-width="3"/><path d="M-122 458l262 36 72-296-334 260z" fill="#a7cce4" fill-rule="nonzero" stroke="#a7cce4" stroke-width="3"/><path d="M-182 156l60 302 334-260-394-42z" fill="#b5d4e9" fill-rule="nonzero" stroke="#b5d4e9" stroke-width="3"/><path d="M-168 824L64 940l60-264-292 148z" fill="#8fbadd" fill-rule="nonzero" stroke="#8fbadd" stroke-width="3"/><path d="M-122 458l246 218 16-182-262-36z" fill="#9cc5e3" fill-rule="nonzero" stroke="#9cc5e3" stroke-width="3"/><path d="M-122 458l-46 366 292-148-246-218z" fill="#9ac3e2" fill-rule="nonzero" stroke="#9ac3e2" stroke-width="3"/><path d="M-142 1094l96 360 96-42-192-318z" fill="#7f9ecd" fill-rule="nonzero" stroke="#7f9ecd" stroke-width="3"/><path d="M-168 824l26 270L64 940l-232-116z" fill="#8cb5da" fill-rule="nonzero" stroke="#8cb5da" stroke-width="3"/></svg>