<svg width="1200" height="1200" xmlns="http://www.w3.org/2000/svg" fill-rule="evenodd" clip-rule="evenodd"><path d="M1374 732l-214 386 286 38-72-424z" fill="#288b49" fill-rule="nonzero" stroke="#288b49" stroke-width="3"/><path d="M1088 504l286 228 6-324-292 96z" fill="#52a25e" fill-rule="nonzero" stroke="#52a25e" stroke-width="3"/><path d="M1160 1118l204 332 82-294-286-38z" fill="#1b7c3f" fill-rule="nonzero" stroke="#1b7c3f" stroke-width="3"/><path d="M1160 1118l-116 296 320 36-204-332z" fill="#1e7e41" fill-rule="nonzero" stroke="#1e7e41" stroke-width="3"/><path d="M1088 504l2 188 284 40-286-228z" fill="#4da45c" fill-rule="nonzero" stroke="#4da45c" stroke-width="3"/><path d="M1090 692l70 426 214-386-284-40z" fill="#389952" fill-rule="nonzero" stroke="#389952" stroke-width="3"/><path d="M1270 120l-182 384 292-96-110-288z" fill="#67ac65" fill-rule="nonzero" stroke="#67ac65" stroke-width="3"/><path d="M982-52l288 172 36-302L982-52z" fill="#86bb73" fill-rule="nonzero" stroke="#86bb73" stroke-width="3"/><path d="M988 102l100 402 182-384-282-18z" fill="#75b86d" fill-rule="nonzero" stroke="#75b86d" stroke-width="3"/><path d="M982-52l6 154 282 18L982-52z" fill="#85bf75" fill-rule="nonzero" stroke="#85bf75" stroke-width="3"/><path d="M764 1000l-72 306 352 108-280-414z" fill="#389852" fill-rule="nonzero" stroke="#389852" stroke-width="3"/><path d="M988 102L694 362l394 142-100-402z" fill="#78c273" fill-rule="nonzero" stroke="#78c273" stroke-width="3"/><path d="M752 802l12 198 326-308-338 110z" fill="#4cb061" fill-rule="nonzero" stroke="#4cb061" stroke-width="3"/><path d="M1090 692l-326 308 396 118-70-426z" fill="#3aa157" fill-rule="nonzero" stroke="#3aa157" stroke-width="3"/><path d="M764 1000l280 414 116-296-396-118z" fill="#2f934d" fill-rule="nonzero" stroke="#2f934d" stroke-width="3"/><path d="M694 362l58 440 336-298-394-142z" fill="#67bc6f" fill-rule="nonzero" stroke="#67bc6f" stroke-width="3"/><path d="M1088 504L752 802l338-110-2-188z" fill="#54b064" fill-rule="nonzero" stroke="#54b064" stroke-width="3"/><path d="M686 136l8 226 294-260-302 34z" fill="#8ccc7e" fill-rule="nonzero" stroke="#8ccc7e" stroke-width="3"/><path d="M690-124l-4 260L982-52l-292-72z" fill="#9bd385" fill-rule="nonzero" stroke="#9bd385" stroke-width="3"/><path d="M982-52L686 136l302-34-6-154z" fill="#8ecc7e" fill-rule="nonzero" stroke="#8ecc7e" stroke-width="3"/><path d="M694 362L464 516l288 286-58-440z" fill="#79c679" fill-rule="nonzero" stroke="#79c679" stroke-width="3"/><path d="M464 516l-40 130 328 156-288-286z" fill="#79c678" fill-rule="nonzero" stroke="#79c678" stroke-width="3"/><path d="M752 802L388 964l376 36-12-198z" fill="#5ab568" fill-rule="nonzero" stroke="#5ab568" stroke-width="3"/><path d="M388 964l304 342 72-306-376-36z" fill="#54ab62" fill-rule="nonzero" stroke="#54ab62" stroke-width="3"/><path d="M388 964l136 412 168-70-304-342z" fill="#56a65f" fill-rule="nonzero" stroke="#56a65f" stroke-width="3"/><path d="M424 646l-36 318 364-162-328-156z" fill="#6ec072" fill-rule="nonzero" stroke="#6ec072" stroke-width="3"/><path d="M392 42l294 94 4-260L392 42z" fill="#a9db8e" fill-rule="nonzero" stroke="#a9db8e" stroke-width="3"/><path d="M686 136L392 42l302 320-8-226z" fill="#9dd688" fill-rule="nonzero" stroke="#9dd688" stroke-width="3"/><path d="M392 42l72 474 230-154L392 42z" fill="#9ad486" fill-rule="nonzero" stroke="#9ad486" stroke-width="3"/><path d="M388-232l4 274 298-166-302-108z" fill="#b8e196" fill-rule="nonzero" stroke="#b8e196" stroke-width="3"/><path d="M388-232L254-120 392 42l-4-274z" fill="#c4e79b" fill-rule="nonzero" stroke="#c4e79b" stroke-width="3"/><path d="M392 42L212 198l252 318-72-474z" fill="#acdd8d" fill-rule="nonzero" stroke="#acdd8d" stroke-width="3"/><path d="M388 964L50 1412l474-36-136-412z" fill="#68ac66" fill-rule="nonzero" stroke="#68ac66" stroke-width="3"/><path d="M64 940l-14 472 338-448-324-24z" fill="#7bba70" fill-rule="nonzero" stroke="#7bba70" stroke-width="3"/><path d="M124 676l264 288 36-318-300 30z" fill="#85ca7b" fill-rule="nonzero" stroke="#85ca7b" stroke-width="3"/><path d="M212 198l-72 296 324 22-252-318z" fill="#a6da8b" fill-rule="nonzero" stroke="#a6da8b" stroke-width="3"/><path d="M140 494l284 152 40-130-324-22z" fill="#94d283" fill-rule="nonzero" stroke="#94d283" stroke-width="3"/><path d="M124 676L64 940l324 24-264-288z" fill="#86ca7b" fill-rule="nonzero" stroke="#86ca7b" stroke-width="3"/><path d="M140 494l-16 182 300-30-284-152z" fill="#98d485" fill-rule="nonzero" stroke="#98d485" stroke-width="3"/><path d="M254-120l-42 318L392 42 254-120z" fill="#c1e697" fill-rule="nonzero" stroke="#c1e697" stroke-width="3"/><path d="M-142 1094l192 318 14-472-206 154z" fill="#86bd74" fill-rule="nonzero" stroke="#86bd74" stroke-width="3"/><path d="M-182 156l394 42 42-318-436 276z" fill="#cdeb9c" fill-rule="nonzero" stroke="#cdeb9c" stroke-width="3"/><path d="M-174-240l-8 396 436-276-428-120z" fill="#def2a6" fill-rule="nonzero" stroke="#def2a6" stroke-width="3"/><path d="M-122 458l262 36 72-296-334 260z" fill="#b7e193" fill-rule="nonzero" stroke="#b7e193" stroke-width="3"/><path d="M-182 156l60 302 334-260-394-42z" fill="#c7e89a" fill-rule="nonzero" stroke="#c7e89a" stroke-width="3"/><path d="M-168 824L64 940l60-264-292 148z" fill="#98d283" fill-rule="nonzero" stroke="#98d283" stroke-width="3"/><path d="M-122 458l246 218 16-182-262-36z" fill="#abdc8e" fill-rule="nonzero" stroke="#abdc8e" stroke-width="3"/><path d="M-122 458l-46 366 292-148-246-218z" fill="#a9da8d" fill-rule="nonzero" stroke="#a9da8d" stroke-width="3"/><path d="M-142 1094l96 360 96-42-192-318z" fill="#81b470" fill-rule="nonzero" stroke="#81b470" stroke-width="3"/><path d="M-168 824l26 270L64 940l-232-116z" fill="#93cc7f" fill-rule="nonzero" stroke="#93cc7f" stroke-width="3"/></svg>