<svg width="1200" height="600" xmlns="http://www.w3.org/2000/svg" fill-rule="evenodd" clip-rule="evenodd"><g fill-rule="nonzero" stroke-width="1.5"><path d="M1374 732l-214 386 286 38-72-424z" fill="#535353" stroke="#535353" stroke-width="3"/><path d="M1088 504l286 228 6-324-292 96z" fill="#6f6f6f" stroke="#6f6f6f" stroke-width="3"/><path d="M1160 1118l204 332 82-294-286-38z" fill="#454545" stroke="#454545" stroke-width="3"/><path d="M1160 1118l-116 296 320 36-204-332z" fill="#484848" stroke="#484848" stroke-width="3"/><path d="M1088 504l2 188 284 40-286-228z" fill="#727272" stroke="#727272" stroke-width="3"/><path d="M1090 692l70 426 214-386-284-40z" fill="#656565" stroke="#656565" stroke-width="3"/><path d="M1270 120l-182 384 292-96-110-288z" fill="#7f7f7f" stroke="#7f7f7f" stroke-width="3"/><path d="M982-52l288 172 36-302L982-52z" fill="#959595" stroke="#959595" stroke-width="3"/><path d="M988 102l100 402 182-384-282-18z" fill="#8d8d8d" stroke="#8d8d8d" stroke-width="3"/><path d="M982-52l6 154 282 18L982-52z" fill="#979797" stroke="#979797" stroke-width="3"/><path d="M764 1000l-72 306 352 108-280-414z" fill="#636363" stroke="#636363" stroke-width="3"/><path d="M988 102L694 362l394 142-100-402z" fill="#949494" stroke="#949494" stroke-width="3"/><path d="M752 802l12 198 326-308-338 110z" fill="#797979" stroke="#797979" stroke-width="3"/><path d="M1090 692l-326 308 396 118-70-426z" fill="#6b6b6b" stroke="#6b6b6b" stroke-width="3"/><path d="M764 1000l280 414 116-296-396-118z" fill="#5e5e5e" stroke="#5e5e5e" stroke-width="3"/><path d="M694 362l58 440 336-298-394-142z" fill="#8a8a8a" stroke="#8a8a8a" stroke-width="3"/><path d="M1088 504L752 802l338-110-2-188z" fill="#7c7c7c" stroke="#7c7c7c" stroke-width="3"/><path d="M686 136l8 226 294-260-302 34z" fill="#a2a2a2" stroke="#a2a2a2" stroke-width="3"/><path d="M690-124l-4 260L982-52l-292-72z" fill="#acacac" stroke="#acacac" stroke-width="3"/><path d="M982-52L686 136l302-34-6-154z" fill="#a3a3a3" stroke="#a3a3a3" stroke-width="3"/><g fill="#969696" stroke="#969696"><path d="M694 362L464 516l288 286-58-440z" stroke-width="3"/><path d="M464 516l-40 130 328 156-288-286z" stroke-width="3"/></g><path d="M752 802L388 964l376 36-12-198z" fill="#818181" stroke="#818181" stroke-width="3"/><path d="M388 964l304 342 72-306-376-36z" fill="#787878" stroke="#787878" stroke-width="3"/><path d="M388 964l136 412 168-70-304-342z" fill="#767676" stroke="#767676" stroke-width="3"/><path d="M424 646l-36 318 364-162-328-156z" fill="#8f8f8f" stroke="#8f8f8f" stroke-width="3"/><path d="M392 42l294 94 4-260L392 42z" fill="#b6b6b6" stroke="#b6b6b6" stroke-width="3"/><path d="M686 136L392 42l302 320-8-226z" fill="#afafaf" stroke="#afafaf" stroke-width="3"/><path d="M392 42l72 474 230-154L392 42z" fill="#aeaeae" stroke="#aeaeae" stroke-width="3"/><path d="M388-232l4 274 298-166-302-108z" fill="#c2c2c2" stroke="#c2c2c2" stroke-width="3"/><path d="M388-232L254-120 392 42l-4-274z" fill="#ccc" stroke="#ccc" stroke-width="3"/><path d="M392 42L212 198l252 318-72-474z" fill="#bbb" stroke="#bbb" stroke-width="3"/><path d="M388 964L50 1412l474-36-136-412z" fill="gray" stroke="gray" stroke-width="3"/><path d="M64 940l-14 472 338-448-324-24z" fill="#919191" stroke="#919191" stroke-width="3"/><path d="M124 676l264 288 36-318-300 30z" fill="#9f9f9f" stroke="#9f9f9f" stroke-width="3"/><path d="M212 198l-72 296 324 22-252-318z" fill="#b7b7b7" stroke="#b7b7b7" stroke-width="3"/><path d="M140 494l284 152 40-130-324-22z" fill="#a9a9a9" stroke="#a9a9a9" stroke-width="3"/><path d="M124 676L64 940l324 24-264-288z" fill="#9f9f9f" stroke="#9f9f9f" stroke-width="3"/><path d="M140 494l-16 182 300-30-284-152z" fill="#acacac" stroke="#acacac" stroke-width="3"/><path d="M254-120l-42 318L392 42 254-120z" fill="#c9c9c9" stroke="#c9c9c9" stroke-width="3"/><path d="M-142 1094l192 318 14-472-206 154z" fill="#969696" stroke="#969696" stroke-width="3"/><path d="M-182 156l394 42 42-318-436 276z" fill="#d1d1d1" stroke="#d1d1d1" stroke-width="3"/><path d="M-174-240l-8 396 436-276-428-120z" fill="#ddd" stroke="#ddd" stroke-width="3"/><path d="M-122 458l262 36 72-296-334 260z" fill="#c2c2c2" stroke="#c2c2c2" stroke-width="3"/><path d="M-182 156l60 302 334-260-394-42z" fill="#cdcdcd" stroke="#cdcdcd" stroke-width="3"/><path d="M-168 824L64 940l60-264-292 148z" fill="#a9a9a9" stroke="#a9a9a9" stroke-width="3"/><path d="M-122 458l246 218 16-182-262-36z" fill="#b9b9b9" stroke="#b9b9b9" stroke-width="3"/><path d="M-122 458l-46 366 292-148-246-218z" fill="#b6b6b6" stroke="#b6b6b6" stroke-width="3"/><path d="M-142 1094l96 360 96-42-192-318z" fill="#898989" stroke="#898989" stroke-width="3"/><path d="M-168 824l26 270L64 940l-232-116z" fill="#a4a4a4" stroke="#a4a4a4" stroke-width="3"/></g></svg>