<?xml version="1.0" encoding="UTF-8" standalone="no"?>
<!DOCTYPE svg PUBLIC "-//W3C//DTD SVG 1.1//EN" "http://www.w3.org/Graphics/SVG/1.1/DTD/svg11.dtd">
<svg width="100%" height="100%" viewBox="0 0 657 154" version="1.1" xmlns="http://www.w3.org/2000/svg" xmlns:xlink="http://www.w3.org/1999/xlink" xml:space="preserve" xmlns:serif="http://www.serif.com/" style="fill-rule:evenodd;clip-rule:evenodd;stroke-linejoin:round;stroke-miterlimit:2;">
    <path d="M217.61,61.947C217.61,74.069 227.125,78.892 241.464,80.977L246.808,81.76C253.716,82.802 261.928,83.454 261.928,90.102C261.928,96.359 255.411,100.66 246.287,100.66C235.859,100.66 227.647,94.794 223.606,85.149L212.657,91.014C217.61,100.399 227.777,111.088 245.896,111.088C262.319,111.088 274.051,102.485 274.051,89.711C274.051,76.415 262.711,72.765 248.242,70.68L242.898,69.898C235.989,68.855 229.732,68.073 229.732,61.816C229.732,56.342 235.077,52.953 242.246,52.953C249.806,52.953 257.497,56.472 264.535,65.596L273.66,59.079C263.623,47.869 255.02,42.785 241.985,42.785C228.95,42.785 217.61,49.824 217.61,61.947Z" style="fill:white;fill-rule:nonzero;"/>
    <path d="M338.573,109.263L338.573,44.61L326.321,44.61L326.321,78.762C326.321,92.057 318.891,99.617 307.029,99.617C296.601,99.617 290.605,93.882 290.605,82.802L290.605,44.61L278.352,44.61L278.352,83.845C278.352,101.442 289.823,110.306 303.249,110.306C315.893,110.306 321.758,104.44 324.756,98.444L326.581,98.444L326.581,109.263L338.573,109.263Z" style="fill:white;fill-rule:nonzero;"/>
    <path d="M344.178,76.937C344.178,96.75 358.256,111.088 377.547,111.088C396.448,111.088 405.703,98.444 408.57,86.322L396.448,83.975C394.753,92.187 389.8,99.878 377.547,99.878C365.034,99.878 356.431,90.754 356.431,76.937C356.431,63.12 365.034,53.995 377.287,53.995C388.627,53.995 395.275,61.034 396.318,70.028L408.31,67.552C405.703,53.344 394.493,42.785 377.287,42.785C358.256,42.785 344.178,57.124 344.178,76.937Z" style="fill:white;fill-rule:nonzero;"/>
    <path d="M409.222,76.937C409.222,96.75 423.3,111.088 442.591,111.088C461.492,111.088 470.747,98.444 473.614,86.322L461.492,83.975C459.797,92.187 454.844,99.878 442.591,99.878C430.078,99.878 421.475,90.754 421.475,76.937C421.475,63.12 430.078,53.995 442.331,53.995C453.671,53.995 460.319,61.034 461.361,70.028L473.353,67.552C470.747,53.344 459.537,42.785 442.331,42.785C423.3,42.785 409.222,57.124 409.222,76.937Z" style="fill:white;fill-rule:nonzero;"/>
    <path d="M474.266,76.415C474.266,95.968 487.822,111.088 507.635,111.088C522.886,111.088 531.098,102.615 535.921,94.794L525.623,88.929C522.234,95.707 516.759,100.399 507.374,100.399C495.904,100.399 487.822,93.1 487.04,81.368L538.397,81.368L538.397,75.242C538.397,56.472 525.362,42.785 506.592,42.785C488.083,42.785 474.266,57.384 474.266,76.415ZM487.04,71.462C487.953,59.861 495.382,53.474 506.592,53.474C517.802,53.474 525.362,60.252 525.623,71.462L487.04,71.462Z" style="fill:white;fill-rule:nonzero;"/>
    <path d="M541.395,61.947C541.395,74.069 550.911,78.892 565.249,80.977L570.593,81.76C577.502,82.802 585.714,83.454 585.714,90.102C585.714,96.359 579.196,100.66 570.072,100.66C559.644,100.66 551.432,94.794 547.391,85.149L536.442,91.014C541.395,100.399 551.563,111.088 569.681,111.088C586.105,111.088 597.836,102.485 597.836,89.711C597.836,76.415 586.496,72.765 572.027,70.68L566.683,69.898C559.774,68.855 553.518,68.073 553.518,61.816C553.518,56.342 558.862,52.953 566.031,52.953C573.591,52.953 581.282,56.472 588.321,65.596L597.445,59.079C587.408,47.869 578.805,42.785 565.77,42.785C552.736,42.785 541.395,49.824 541.395,61.947Z" style="fill:white;fill-rule:nonzero;"/>
    <path d="M600.313,61.947C600.313,74.069 609.828,78.892 624.167,80.977L629.511,81.76C636.419,82.802 644.631,83.454 644.631,90.102C644.631,96.359 638.114,100.66 628.989,100.66C618.562,100.66 610.35,94.794 606.309,85.149L595.36,91.014C600.313,100.399 610.48,111.088 628.598,111.088C645.022,111.088 656.754,102.485 656.754,89.711C656.754,76.415 645.413,72.765 630.945,70.68L625.6,69.898C618.692,68.855 612.435,68.073 612.435,61.816C612.435,56.342 617.779,52.953 624.949,52.953C632.509,52.953 640.199,56.472 647.238,65.596L656.363,59.079C646.326,47.869 637.723,42.785 624.688,42.785C611.653,42.785 600.313,49.824 600.313,61.947Z" style="fill:white;fill-rule:nonzero;"/>
    <path d="M146.693,68.243C146.694,68.243 146.694,68.243 146.694,68.243C147.417,67.412 148.572,67.105 149.612,67.468C150.651,67.831 151.365,68.79 151.414,69.889C151.677,75.758 152.052,84.121 152.277,89.153C152.328,90.297 151.92,91.414 151.143,92.256C150.366,93.097 149.285,93.593 148.141,93.633C141.867,93.852 130.99,94.233 130.99,94.233C130.99,94.233 139.719,101.052 144.645,104.9C146.458,106.317 146.78,108.935 145.363,110.748C140.775,116.622 131.215,128.861 126.627,134.734C125.21,136.547 122.592,136.869 120.778,135.453C115.853,131.605 107.123,124.786 107.123,124.786C107.123,124.786 109.427,135.621 110.727,141.734C111.206,143.985 109.769,146.198 107.518,146.676C100.228,148.227 85.038,151.457 77.747,153.007C75.497,153.485 73.284,152.049 72.805,149.798C71.505,143.684 69.201,132.849 69.201,132.849C69.201,132.849 64.002,142.63 61.068,148.149C59.988,150.181 57.465,150.952 55.433,149.872C48.852,146.374 35.139,139.084 28.558,135.585C26.526,134.505 25.755,131.982 26.835,129.95C29.769,124.432 34.969,114.651 34.969,114.651C34.969,114.651 24.698,118.801 18.903,121.143C16.77,122.005 14.341,120.974 13.479,118.841C10.687,111.931 4.868,97.532 2.075,90.622C1.213,88.488 2.244,86.06 4.377,85.197C10.172,82.856 20.443,78.705 20.443,78.705C20.443,78.705 9.907,75.283 3.963,73.352C1.774,72.641 0.576,70.291 1.287,68.102C3.59,61.013 8.388,46.243 10.69,39.155C11.401,36.966 13.752,35.768 15.94,36.479C21.885,38.41 32.42,41.832 32.42,41.832C32.42,41.832 26.549,32.439 23.237,27.139C22.017,25.187 22.611,22.617 24.562,21.397C30.882,17.447 44.052,9.216 50.372,5.266C52.324,4.047 54.894,4.64 56.114,6.591C59.426,11.891 65.297,21.285 65.297,21.285C65.297,21.285 66.838,10.315 67.707,4.126C68.027,1.847 70.134,0.259 72.413,0.58C79.794,1.616 95.173,3.776 102.553,4.813C104.832,5.133 106.42,7.24 106.1,9.519C105.231,15.708 103.69,26.678 103.69,26.678C103.69,26.678 111.921,19.265 116.566,15.083C118.276,13.543 120.91,13.681 122.45,15.391C127.473,20.968 137.978,32.633 142.923,38.124C144.421,39.788 144.337,42.338 142.732,43.899C130.376,55.917 82.402,102.577 82.402,102.577C80.193,104.827 78.527,104.827 76.277,102.577L54.902,80.785C54.255,79.945 53.253,79.451 52.193,79.451C51.133,79.451 50.131,79.945 49.485,80.785L40.402,89.118C39.398,89.771 38.791,90.89 38.791,92.087C38.791,93.195 39.311,94.241 40.193,94.91C52.193,107.493 64.235,119.993 76.318,132.41C78.485,134.66 80.193,134.618 82.402,132.41L146.693,68.243Z" style="fill:white;"/>
</svg>
