<?xml version="1.0" encoding="UTF-8" standalone="no"?>
<!DOCTYPE svg PUBLIC "-//W3C//DTD SVG 1.1//EN" "http://www.w3.org/Graphics/SVG/1.1/DTD/svg11.dtd">
<svg width="100%" height="100%" viewBox="0 0 634 154" version="1.1" xmlns="http://www.w3.org/2000/svg" xmlns:xlink="http://www.w3.org/1999/xlink" xml:space="preserve" xmlns:serif="http://www.serif.com/" style="fill-rule:evenodd;clip-rule:evenodd;stroke-linejoin:round;stroke-miterlimit:2;">
    <path d="M270.113,115.558C270.113,117.321 270.511,118.877 271.305,120.227C272.1,121.576 273.139,122.632 274.423,123.394C275.708,124.156 277.101,124.537 278.603,124.537C280.213,124.537 281.639,124.221 282.88,123.59C284.121,122.958 285.144,122.142 285.949,121.141L285.949,124.798C284.991,125.647 283.947,126.278 282.815,126.692C281.683,127.105 280.279,127.312 278.603,127.312C277.014,127.312 275.528,127.024 274.146,126.447C272.764,125.87 271.55,125.054 270.505,123.998C269.46,122.942 268.644,121.696 268.056,120.259C267.469,118.823 267.175,117.255 267.175,115.558C267.175,113.86 267.469,112.292 268.056,110.856C268.644,109.419 269.46,108.173 270.505,107.117C271.55,106.062 272.764,105.245 274.146,104.668C275.528,104.092 277.014,103.803 278.603,103.803C280.279,103.803 281.683,104.01 282.815,104.424C283.947,104.837 284.991,105.468 285.949,106.317L285.949,109.974C285.144,108.951 284.121,108.129 282.88,107.509C281.639,106.889 280.213,106.579 278.603,106.579C277.101,106.579 275.708,106.959 274.423,107.721C273.139,108.483 272.1,109.533 271.305,110.872C270.511,112.211 270.113,113.773 270.113,115.558Z" style="fill:rgb(238,98,107);fill-rule:nonzero;"/>
    <path d="M314.649,115.558C314.649,113.881 314.938,112.331 315.515,110.905C316.091,109.479 316.902,108.238 317.947,107.183C318.992,106.127 320.222,105.3 321.637,104.701C323.052,104.102 324.586,103.803 326.241,103.803C327.917,103.803 329.457,104.102 330.861,104.701C332.265,105.3 333.489,106.127 334.534,107.183C335.579,108.238 336.39,109.479 336.966,110.905C337.543,112.331 337.832,113.881 337.832,115.558C337.832,117.212 337.543,118.757 336.966,120.194C336.39,121.631 335.579,122.877 334.534,123.933C333.489,124.988 332.265,125.815 330.861,126.414C329.457,127.013 327.917,127.312 326.241,127.312C324.586,127.312 323.052,127.013 321.637,126.414C320.222,125.815 318.992,124.988 317.947,123.933C316.902,122.877 316.091,121.631 315.515,120.194C314.938,118.757 314.649,117.212 314.649,115.558ZM317.588,115.558C317.588,117.277 317.963,118.812 318.714,120.161C319.465,121.511 320.494,122.578 321.8,123.361C323.106,124.145 324.586,124.537 326.241,124.537C327.917,124.537 329.402,124.145 330.697,123.361C331.993,122.578 333.016,121.511 333.767,120.161C334.518,118.812 334.893,117.277 334.893,115.558C334.893,113.838 334.518,112.303 333.767,110.954C333.016,109.604 331.993,108.538 330.697,107.754C329.402,106.97 327.917,106.579 326.241,106.579C324.586,106.579 323.106,106.97 321.8,107.754C320.494,108.538 319.465,109.604 318.714,110.954C317.963,112.303 317.588,113.838 317.588,115.558Z" style="fill:rgb(238,98,107);fill-rule:nonzero;"/>
    <path d="M370.026,111.541L368.328,126.985L365.552,126.985L368.328,102.987L377.47,119.541L386.612,102.987L389.388,126.985L386.612,126.985L384.914,111.541L377.47,124.863L370.026,111.541Z" style="fill:rgb(238,98,107);fill-rule:nonzero;"/>
    <path d="M421.19,117.843L421.19,126.985L418.414,126.985L418.414,104.13L424.618,104.13C426.098,104.13 427.421,104.407 428.585,104.962C429.75,105.517 430.675,106.306 431.36,107.33C432.046,108.353 432.389,109.572 432.389,110.986C432.389,112.38 432.046,113.593 431.36,114.627C430.675,115.661 429.75,116.455 428.585,117.011C427.421,117.566 426.098,117.843 424.618,117.843L421.19,117.843ZM421.19,115.231L424.618,115.231C426.098,115.231 427.301,114.872 428.226,114.154C429.151,113.435 429.614,112.38 429.614,110.986C429.614,109.572 429.151,108.51 428.226,107.803C427.301,107.096 426.098,106.742 424.618,106.742L421.19,106.742L421.19,115.231Z" style="fill:rgb(238,98,107);fill-rule:nonzero;"/>
    <path d="M462.689,120.129L459.783,126.985L456.681,126.985L467.293,102.987L477.905,126.985L474.803,126.985L471.897,120.129L462.689,120.129ZM463.799,117.517L470.787,117.517L467.293,109.289L463.799,117.517Z" style="fill:rgb(238,98,107);fill-rule:nonzero;"/>
    <path d="M523.094,104.13L525.869,104.13L525.869,128.128L508.564,109.974L508.564,126.985L505.788,126.985L505.788,102.987L523.094,121.141L523.094,104.13Z" style="fill:rgb(238,98,107);fill-rule:nonzero;"/>
    <path d="M568.642,104.13L571.744,104.13L564.136,117.125L564.136,126.985L561.361,126.985L561.361,117.157L553.753,104.13L556.855,104.13L562.732,114.709L568.642,104.13Z" style="fill:rgb(238,98,107);fill-rule:nonzero;"/>
    <path d="M207.444,44.321C207.444,56.073 216.669,60.749 230.57,62.771L235.751,63.529C242.448,64.54 250.409,65.172 250.409,71.617C250.409,77.682 244.091,81.852 235.245,81.852C225.136,81.852 217.175,76.166 213.257,66.815L202.642,72.501C207.444,81.6 217.301,91.962 234.866,91.962C250.788,91.962 262.162,83.622 262.162,71.238C262.162,58.348 251.168,54.81 237.141,52.788L231.96,52.03C225.262,51.019 219.196,50.26 219.196,44.195C219.196,38.887 224.378,35.602 231.328,35.602C238.657,35.602 246.113,39.014 252.937,47.859L261.782,41.541C252.052,30.673 243.712,25.745 231.075,25.745C218.438,25.745 207.444,32.569 207.444,44.321Z" style="fill:rgb(49,60,92);fill-rule:nonzero;"/>
    <path d="M324.714,90.193L324.714,27.514L312.835,27.514L312.835,60.623C312.835,73.512 305.632,80.841 294.133,80.841C284.023,80.841 278.21,75.281 278.21,64.54L278.21,27.514L266.332,27.514L266.332,65.551C266.332,82.611 277.452,91.204 290.468,91.204C302.726,91.204 308.412,85.517 311.319,79.704L313.088,79.704L313.088,90.193L324.714,90.193Z" style="fill:rgb(49,60,92);fill-rule:nonzero;"/>
    <path d="M330.148,58.853C330.148,78.061 343.795,91.962 362.498,91.962C380.821,91.962 389.793,79.704 392.573,67.952L380.821,65.677C379.178,73.639 374.376,81.094 362.498,81.094C350.366,81.094 342.026,72.248 342.026,58.853C342.026,45.458 350.366,36.613 362.245,36.613C373.239,36.613 379.684,43.437 380.695,52.156L392.321,49.755C389.793,35.981 378.926,25.745 362.245,25.745C343.795,25.745 330.148,39.646 330.148,58.853Z" style="fill:rgb(49,60,92);fill-rule:nonzero;"/>
    <path d="M393.205,58.853C393.205,78.061 406.853,91.962 425.555,91.962C443.879,91.962 452.851,79.704 455.631,67.952L443.879,65.677C442.236,73.639 437.434,81.094 425.555,81.094C413.424,81.094 405.084,72.248 405.084,58.853C405.084,45.458 413.424,36.613 425.303,36.613C436.297,36.613 442.741,43.437 443.752,52.156L455.378,49.755C452.851,35.981 441.983,25.745 425.303,25.745C406.853,25.745 393.205,39.646 393.205,58.853Z" style="fill:rgb(49,60,92);fill-rule:nonzero;"/>
    <path d="M456.263,58.348C456.263,77.303 469.405,91.962 488.613,91.962C503.398,91.962 511.359,83.748 516.035,76.166L506.052,70.479C502.766,77.05 497.459,81.6 488.36,81.6C477.24,81.6 469.405,74.523 468.647,63.15L518.436,63.15L518.436,57.211C518.436,39.014 505.799,25.745 487.602,25.745C469.658,25.745 456.263,39.898 456.263,58.348ZM468.647,53.546C469.531,42.299 476.734,36.107 487.602,36.107C498.47,36.107 505.799,42.678 506.052,53.546L468.647,53.546Z" style="fill:rgb(49,60,92);fill-rule:nonzero;"/>
    <path d="M521.342,44.321C521.342,56.073 530.567,60.749 544.468,62.771L549.649,63.529C556.346,64.54 564.307,65.172 564.307,71.617C564.307,77.682 557.989,81.852 549.143,81.852C539.034,81.852 531.073,76.166 527.155,66.815L516.54,72.501C521.342,81.6 531.199,91.962 548.764,91.962C564.686,91.962 576.059,83.622 576.059,71.238C576.059,58.348 565.065,54.81 551.039,52.788L545.858,52.03C539.16,51.019 533.094,50.26 533.094,44.195C533.094,38.887 538.275,35.602 545.226,35.602C552.555,35.602 560.011,39.014 566.835,47.859L575.68,41.541C565.95,30.673 557.61,25.745 544.973,25.745C532.336,25.745 521.342,32.569 521.342,44.321Z" style="fill:rgb(49,60,92);fill-rule:nonzero;"/>
    <path d="M578.46,44.321C578.46,56.073 587.685,60.749 601.586,62.771L606.767,63.529C613.464,64.54 621.426,65.172 621.426,71.617C621.426,77.682 615.107,81.852 606.261,81.852C596.152,81.852 588.191,76.166 584.273,66.815L573.658,72.501C578.46,81.6 588.317,91.962 605.882,91.962C621.805,91.962 633.178,83.622 633.178,71.238C633.178,58.348 622.184,54.81 608.157,52.788L602.976,52.03C596.278,51.019 590.213,50.26 590.213,44.195C590.213,38.887 595.394,35.602 602.344,35.602C609.673,35.602 617.129,39.014 623.953,47.859L632.799,41.541C623.068,30.673 614.728,25.745 602.091,25.745C589.454,25.745 578.46,32.569 578.46,44.321Z" style="fill:rgb(49,60,92);fill-rule:nonzero;"/>
    <path d="M146.693,68.243C146.694,68.243 146.694,68.243 146.694,68.243C147.417,67.412 148.572,67.105 149.612,67.468C150.651,67.831 151.365,68.79 151.414,69.889C151.677,75.758 152.052,84.121 152.277,89.153C152.328,90.297 151.92,91.414 151.143,92.256C150.366,93.097 149.285,93.593 148.141,93.633C141.867,93.852 130.99,94.233 130.99,94.233C130.99,94.233 139.719,101.052 144.645,104.9C146.458,106.317 146.78,108.935 145.363,110.748C140.775,116.622 131.215,128.861 126.627,134.734C125.21,136.547 122.592,136.869 120.778,135.453C115.853,131.605 107.123,124.786 107.123,124.786C107.123,124.786 109.427,135.621 110.727,141.734C111.206,143.985 109.769,146.198 107.518,146.676C100.228,148.227 85.038,151.457 77.747,153.007C75.497,153.485 73.284,152.049 72.805,149.798C71.505,143.684 69.201,132.849 69.201,132.849C69.201,132.849 64.002,142.63 61.068,148.149C59.988,150.181 57.465,150.952 55.433,149.872C48.852,146.374 35.139,139.084 28.558,135.585C26.526,134.505 25.755,131.982 26.835,129.95C29.769,124.432 34.969,114.651 34.969,114.651C34.969,114.651 24.698,118.801 18.903,121.143C16.77,122.005 14.341,120.974 13.479,118.841C10.687,111.931 4.868,97.532 2.075,90.622C1.213,88.488 2.244,86.06 4.377,85.197C10.172,82.856 20.443,78.705 20.443,78.705C20.443,78.705 9.907,75.283 3.963,73.352C1.774,72.641 0.576,70.291 1.287,68.102C3.59,61.013 8.388,46.243 10.69,39.155C11.401,36.966 13.752,35.768 15.94,36.479C21.885,38.41 32.42,41.832 32.42,41.832C32.42,41.832 26.549,32.439 23.237,27.139C22.017,25.187 22.611,22.617 24.562,21.397C30.882,17.447 44.052,9.216 50.372,5.266C52.324,4.047 54.894,4.64 56.114,6.591C59.426,11.891 65.297,21.285 65.297,21.285C65.297,21.285 66.838,10.315 67.707,4.126C68.027,1.847 70.134,0.259 72.413,0.58C79.794,1.616 95.173,3.776 102.553,4.813C104.832,5.133 106.42,7.24 106.1,9.519C105.231,15.708 103.69,26.678 103.69,26.678C103.69,26.678 111.921,19.265 116.566,15.083C118.276,13.543 120.91,13.681 122.45,15.391C127.473,20.968 137.978,32.633 142.923,38.124C144.421,39.788 144.337,42.338 142.732,43.899C130.376,55.917 82.402,102.577 82.402,102.577C80.193,104.827 78.527,104.827 76.277,102.577L54.902,80.785C54.255,79.945 53.253,79.451 52.193,79.451C51.133,79.451 50.131,79.945 49.485,80.785L40.402,89.118C39.398,89.771 38.791,90.89 38.791,92.087C38.791,93.195 39.311,94.241 40.193,94.91C52.193,107.493 64.235,119.993 76.318,132.41C78.485,134.66 80.193,134.618 82.402,132.41L146.693,68.243Z" style="fill:rgb(238,98,107);"/>
</svg>
