<svg width="490" height="87" viewBox="0 0 490 87" fill="none" xmlns="http://www.w3.org/2000/svg">
<path d="M67.2012 1.97198L50.5509 45.9012L33.8015 1.97198H5.16406V81.5886H25.7733V28.9536L46.0098 81.5886H55.1035L75.2295 28.9536V81.5886H95.8387V1.97198H67.2012Z" fill="#999999"/>
<mask id="mask0_3_2" style="mask-type:alpha" maskUnits="userSpaceOnUse" x="98" y="17" width="60" height="67">
<path d="M98.9707 17.4H157.189V83.0154H98.9707V17.4Z" fill="white"/>
</mask>
<g mask="url(#mask0_3_2)">
<path d="M137.634 66.7928V61.6482C135.724 58.9048 131.404 57.5882 127.352 57.5882C122.555 57.5882 118.119 59.7458 118.119 64.2756C118.119 68.8054 122.555 70.963 127.352 70.963C131.404 70.963 135.724 69.5304 137.634 66.787V66.7928ZM137.634 81.5828V75.8524C134.042 80.1386 127.102 83.0154 119.668 83.0154C110.801 83.0154 99.7919 76.9196 99.7919 64.0262C99.7919 50.0714 110.795 45.4256 119.668 45.4256C127.352 45.4256 134.175 47.9196 137.634 52.2232V46.4928C137.634 41.4816 133.337 38.019 125.897 38.019C120.145 38.019 114.393 40.281 109.73 44.225L102.907 31.4476C110.341 25.1256 120.279 22.4982 129.128 22.4982C143.025 22.4982 156.1 27.6428 156.1 45.5416V81.5886H137.634V81.5828Z" fill="#999999"/>
</g>
<mask id="mask1_3_2" style="mask-type:alpha" maskUnits="userSpaceOnUse" x="157" y="17" width="59" height="67">
<path d="M157.189 17.4H215.407V83.0154H157.189V17.4Z" fill="white"/>
</mask>
<g mask="url(#mask1_3_2)">
<path d="M158.598 74.066L166.265 60.9464C170.585 64.7512 179.795 68.6952 186.641 68.6952C192.143 68.6952 194.419 67.1292 194.419 64.6352C194.419 57.478 160.763 64.8672 160.763 41.4816C160.763 31.3316 169.63 22.4982 185.547 22.4982C195.374 22.4982 203.513 25.6012 209.748 30.131L202.698 43.1636C199.216 39.8054 192.626 36.8184 185.687 36.8184C181.367 36.8184 178.497 38.4946 178.497 40.7624C178.497 47.0844 212.019 40.5304 212.019 64.1654C212.019 75.1274 202.331 83.0154 185.797 83.0154C175.382 83.0154 164.722 79.547 158.598 74.066Z" fill="#999999"/>
</g>
<mask id="mask2_3_2" style="mask-type:alpha" maskUnits="userSpaceOnUse" x="215" y="1" width="59" height="83">
<path d="M215.407 1.97198H273.625V83.0154H215.407V1.97198Z" fill="white"/>
</mask>
<g mask="url(#mask2_3_2)">
<path d="M254.797 81.5886V48.024C254.797 41.006 251.089 38.7382 245.197 38.7382C239.812 38.7382 236.22 41.7078 234.077 44.3352V81.5828H215.611V1.97198H234.077V30.972C237.536 26.912 244.382 22.504 254.07 22.504C267.262 22.504 273.241 29.9048 273.241 40.5304V81.5886H254.797Z" fill="#999999"/>
</g>
<mask id="mask3_3_2" style="mask-type:alpha" maskUnits="userSpaceOnUse" x="273" y="17" width="65" height="67">
<path d="M273.625 17.4H337.665V83.0154H273.625V17.4Z" fill="white"/>
</mask>
<g mask="url(#mask3_3_2)">
<path d="M314.814 66.7928V61.6482C312.899 58.9048 308.585 57.5882 304.51 57.5882C299.713 57.5882 295.276 59.7458 295.276 64.2756C295.276 68.8054 299.713 70.963 304.51 70.963C308.585 70.963 312.899 69.5304 314.814 66.787V66.7928ZM314.814 81.5828V75.8524C311.216 80.1386 304.259 83.0154 296.848 83.0154C287.976 83.0154 276.949 76.9196 276.949 64.0262C276.949 50.0714 287.976 45.4256 296.848 45.4256C304.51 45.4256 311.333 47.9196 314.814 52.2232V46.4928C314.814 41.4816 310.489 38.019 303.078 38.019C297.326 38.019 291.568 40.281 286.887 44.225L280.064 31.4476C287.498 25.1256 297.436 22.4982 306.309 22.4982C320.2 22.4982 333.252 27.6428 333.252 45.5416V81.5886H314.814V81.5828Z" fill="#999999"/>
</g>
<mask id="mask4_3_2" style="mask-type:alpha" maskUnits="userSpaceOnUse" x="337" y="1" width="65" height="83">
<path d="M337.665 1.97198H401.705V83.0154H337.665V1.97198Z" fill="white"/>
</mask>
<g mask="url(#mask4_3_2)">
<path d="M368.707 66.7928C376.007 66.7928 381.532 61.3988 381.532 52.6988C381.532 44.1148 376.007 38.7208 368.707 38.7208C364.748 38.7208 359.974 40.8726 357.68 43.9756V61.6482C359.974 64.7512 364.754 66.7928 368.707 66.7928V66.7928ZM339.237 81.5828V1.97198H357.68V30.74C359.706 28.1421 362.308 26.0467 365.283 24.6179C368.257 23.189 371.523 22.4655 374.825 22.504C389.31 22.504 400.342 33.8488 400.342 52.6988C400.342 72.2738 389.083 83.0154 374.825 83.0154C368.346 83.0154 362.477 80.388 357.68 74.9012V81.5886H339.237V81.5828Z" fill="#999999"/>
</g>
<mask id="mask5_3_2" style="mask-type:alpha" maskUnits="userSpaceOnUse" x="401" y="1" width="24" height="83">
<path d="M401.705 1.97198H424.992V83.0154H401.705V1.97198Z" fill="white"/>
</mask>
<g mask="url(#mask5_3_2)">
<path d="M404.051 1.97198H422.494V81.5886H404.051V1.97198Z" fill="#999999"/>
</g>
<mask id="mask6_3_2" style="mask-type:alpha" maskUnits="userSpaceOnUse" x="424" y="17" width="63" height="67">
<path d="M424.992 17.4H486.464V83.0154H424.992V17.4Z" fill="white"/>
</mask>
<g mask="url(#mask6_3_2)">
<path d="M456.878 37.294C448.844 37.294 445.735 42.0732 445.001 46.2434H468.859C468.364 42.1834 465.384 37.294 456.878 37.294ZM426.197 52.6988C426.197 36.0006 438.772 22.4982 456.878 22.4982C474 22.4982 486.464 35.0262 486.464 54.6012V58.7946H445.258C446.573 63.916 451.37 68.2196 459.742 68.2196C463.817 68.2196 470.524 66.4274 473.889 63.3244L481.894 75.3768C476.16 80.4982 466.565 83.0154 457.716 83.0154C439.867 83.0154 426.197 71.4386 426.197 52.6988" fill="#999999"/>
</g>
</svg>
