<svg width="572" height="87" viewBox="0 0 572 87" fill="none" xmlns="http://www.w3.org/2000/svg">
<g clip-path="url(#clip0_3_35)">
<path d="M42.8308 0.951795C66.4353 0.951795 85.6615 20.178 85.6615 43.9729C85.6615 67.7678 66.4353 86.994 42.8308 86.994C19.2263 86.994 0 67.9582 0 43.9729C0 19.9877 19.2263 0.951795 42.8308 0.951795ZM378.624 0V75.3822C378.624 81.0929 380.908 82.6158 385.287 83.7579L385.477 84.7097H361.301V75.3822C358.446 82.2351 352.545 86.423 344.93 86.423C331.986 86.423 323.42 74.6207 323.42 57.1077C323.42 47.209 326.275 38.8332 331.605 32.5514C336.745 26.4599 343.788 23.2238 351.593 23.2238C355.4 23.2238 358.636 23.9852 361.301 25.6985V15.4191C361.301 13.1348 360.73 11.6119 359.588 10.4697C358.065 9.13723 355.591 8.56615 351.783 8.94687H351.593V7.99508L378.624 0ZM470.377 23.4142V75.3822C470.377 81.0929 472.661 82.6158 477.04 83.7579V84.7097H452.864V75.1918C450.009 82.0447 443.727 86.423 436.683 86.423C428.308 86.423 422.978 82.6158 420.884 75.1918L420.503 73.2882C420.122 71.3846 419.932 69.481 419.932 67.5774V39.785C419.932 33.6935 418.599 31.7899 413.269 31.4092H413.079V30.4574L437.255 23.4142V67.1967C437.255 73.6689 440.11 77.2857 445.44 77.2857C448.676 77.2857 451.341 75.5725 452.864 72.7171V39.785C452.864 33.5032 451.722 31.5996 447.344 31.2189H447.153V30.2671L470.377 23.4142ZM295.818 23.2238C302.29 23.2238 308.572 25.5081 312.76 29.5056C317.519 34.0743 319.993 40.7368 320.184 49.4933V49.6837H283.825C283.064 62.2474 290.868 72.5268 301.148 72.9075C308.572 73.4786 315.044 68.9099 318.661 61.4859L319.613 61.8667C317.519 75.7629 309.333 86.2326 295.056 86.2326C278.876 86.2326 269.739 72.7171 269.358 55.7752V51.3969C270.119 43.9729 272.404 37.3104 276.401 32.361C278.876 29.3153 281.731 27.031 285.158 25.5081C288.013 23.9852 292.201 23.2238 295.627 23.2238H295.818ZM547.663 23.4142C557.942 23.4142 564.224 29.8864 564.224 40.9272V76.3339C564.224 80.5218 566.128 82.6158 570.887 83.7579H571.077V84.7097H546.711V41.4983C546.711 34.6453 544.236 31.2189 539.097 31.2189C534.909 31.2189 532.815 34.2646 531.673 36.9296C531.863 38.2622 532.053 39.5947 532.053 40.9272V76.905C532.053 81.2833 533.386 82.8061 537.193 83.7579H537.383V84.7097H514.731V41.4983C514.731 34.6453 512.066 31.2189 507.116 31.2189C503.119 31.2189 501.025 34.0743 500.073 36.3586V77.0954C500.073 81.4736 501.406 82.9965 505.213 83.9483H505.403V84.9001H482.75V39.5947C482.75 33.5032 481.227 31.5996 476.088 31.2189H475.897V30.2671L500.073 23.6045V33.6935C502.548 27.2213 508.258 23.4142 515.492 23.4142C523.678 23.4142 529.388 27.4117 531.292 34.6453C533.767 27.7924 540.048 23.4142 547.663 23.4142ZM200.448 3.80718L223.101 56.9173L245.753 3.80718H270.119L269.929 4.75897L269.652 4.82053C265.455 5.7773 263.266 7.34705 263.266 12.5637V77.2857C263.647 81.4736 265.931 82.8061 269.929 83.7579H270.119V84.7097H239.091V83.7579H239.281C243.279 82.8061 245.563 81.4736 245.944 77.2857V14.2769L216.057 84.5194H214.344L185.219 16.1805V75.7629C185.219 81.0929 187.504 82.6158 191.882 83.5676H192.072V84.5194H174.178V83.5676H174.369C178.747 82.6158 181.031 81.0929 181.031 75.7629V12.5637C181.031 7.23364 178.747 5.71077 174.369 4.75897H174.178V3.80718H200.448ZM408.13 23.4142V75.3822L408.133 75.7337C408.226 81.1562 410.505 82.6396 414.792 83.7579L414.983 84.7097H390.807V39.785C390.807 33.6935 389.474 31.7899 384.144 31.4092H383.954V30.4574L408.13 23.4142ZM111.36 3.42646C122.972 3.42646 132.68 21.7009 132.68 43.9729C132.68 66.4353 123.162 84.5194 111.36 84.5194C99.5577 84.5194 90.0398 66.4353 90.0398 43.9729C90.0398 21.5106 99.5577 3.42646 111.36 3.42646ZM144.102 7.61436C148.48 7.61436 151.716 23.9852 151.716 43.9729C151.716 63.9606 148.29 80.3315 144.102 80.3315C139.956 80.3315 136.556 64.2864 136.488 44.5715L136.487 43.9729C136.487 23.9852 139.914 7.61436 144.102 7.61436ZM354.448 26.6503C346.834 26.6503 342.075 36.7393 342.075 52.3487C342.075 59.7727 343.408 66.2449 345.692 70.6232C347.786 74.8111 350.832 77.0954 354.258 77.0954C357.684 77.0954 360.159 75.5725 361.301 72.7171V30.8382C359.969 28.1731 357.494 26.6503 354.448 26.6503ZM295.627 26.8406C288.775 26.8406 284.777 35.026 284.206 46.4476V46.6379H304.955C305.336 37.6911 303.813 31.7899 300.958 28.9346C299.435 27.6021 297.721 26.8406 295.627 26.8406ZM398.802 0.571077C404.322 0.571077 408.51 4.75897 408.51 10.2794C408.51 15.7998 404.322 19.9877 398.802 19.9877C393.282 19.9877 389.094 15.7998 389.094 10.2794C389.094 4.75897 393.282 0.571077 398.802 0.571077Z" fill="#999999"/>
</g>
<defs>
<clipPath id="clip0_3_35">
<rect width="571.077" height="87" fill="white"/>
</clipPath>
</defs>
</svg>
