<svg width="536" height="87" viewBox="0 0 536 87" fill="none" xmlns="http://www.w3.org/2000/svg">
<path d="M65.6989 20.2561C63.662 15.1921 58.687 9.75492 49.3822 10.5012C37.5232 11.7805 33.8279 23.028 35.6196 29.7445C30.8952 26.5995 22.8648 25.2135 15.8528 31.1304C6.80396 40.0858 11.6403 52.2394 16.6207 55.1713C11.1338 54.6382 2.46882 58.3163 0.549204 67.9113C-1.48772 79.7984 7.68378 86.7281 16.6207 86.7281H115.678C126.007 86.7281 131.739 77.9327 131.099 69.5638C130.086 58.6894 120.019 54.5316 114.527 55.4378C119.118 52.8791 125.244 40.992 115.924 31.6635C108.533 24.6805 99.1056 27.2391 95.7889 30.2243C97.5752 24.4139 94.6478 12.4202 82.6502 10.5012C81.8237 10.4479 81.0292 10.3946 80.2667 10.3946C71.1112 10.3946 66.9946 17.0045 65.6989 20.2561" fill="white"/>
<path d="M17.5059 33.0494C12.2749 37.687 10.3713 48.2948 19.7987 54.5316L57.4072 80.0649L39.1709 38.6998C35.353 28.9449 24.8964 26.866 17.5059 33.0494" fill="#999999"/>
<path d="M49.8781 12.9533C43.7673 13.0599 34.5851 20.2561 38.6696 31.2371L57.5352 75.2674L64.1579 28.9982C65.6936 17.4842 56.8953 12.1537 49.8781 12.9533" fill="#999999"/>
<path d="M67.1013 27.1858H70.6686C70.6686 27.1858 72.5722 27.1858 72.8335 28.092C71.4311 29.2114 67.6132 29.3714 68.1144 35.4482L74.1132 75.2674L92.8455 31.1304C96.6794 21.2689 88.633 13.0599 81.4984 12.7933C81.1678 12.7933 80.8319 12.74 80.4853 12.74C74.0812 12.74 66.744 17.3776 67.1013 27.1858" fill="#999999"/>
<path d="M92.0937 39.073L74.3745 79.905L111.972 54.2651C120.643 48.1882 119.246 38.4866 114.393 33.6358C112.356 31.397 108.624 29.6379 104.667 29.6379C99.9907 29.6379 94.9891 32.0899 92.0937 39.073" fill="#999999"/>
<path d="M107.765 60.0754L72.4549 84.4893H115.934C124.85 84.4893 130.582 75.3741 128.038 67.0051C126.332 61.7811 121.277 57.6766 115.417 57.6766C112.954 57.6766 110.335 58.3696 107.765 60.0754Z" fill="#999999"/>
<path d="M16.4874 84.4893H59.3269L24.0059 60.0754C15.8475 54.9047 6.6707 57.9431 3.35936 66.5253C0.549248 76.3869 7.56119 84.4893 16.4874 84.4893" fill="#999999"/>
<path d="M535.733 71.2695L524.125 59.5423C520.883 62.5274 517.625 64.8729 514.346 66.6319C511.066 68.391 507.056 69.2439 502.316 69.2439C498.759 69.2439 495.501 68.5509 492.537 67.165C489.572 65.7791 487.044 63.9134 484.954 61.5146C482.859 59.1692 481.216 56.3973 480.032 53.2522C478.849 50.1072 478.257 46.749 478.257 43.1775V42.9643C478.257 39.3928 478.849 36.0346 480.032 32.9428C481.216 29.7978 482.88 27.0792 485.013 24.6805C487.146 22.335 489.695 20.4693 492.654 19.1367C495.619 17.8041 498.839 17.1111 502.316 17.1111C506.502 17.1111 510.277 17.964 513.631 19.6164C516.99 21.2689 520.291 23.5611 523.528 26.4929L535.147 13.0599C533.227 11.1942 531.196 9.43508 528.983 7.88922C526.77 6.29005 524.36 4.95741 521.752 3.838C519.145 2.71858 516.239 1.86569 513.039 1.22603C509.84 0.586359 506.305 0.266525 502.433 0.266525C496.035 0.266525 490.185 1.38594 484.895 3.67808C479.6 5.91691 475.057 9.00864 471.266 12.8999C467.47 16.7912 464.51 21.3755 462.377 26.5462C460.244 31.7168 459.178 37.2606 459.178 43.1775V43.3907C459.178 49.3609 460.244 54.9047 462.377 60.1287C464.51 65.3526 467.47 69.8303 471.266 73.6683C475.057 77.5063 479.558 80.5447 484.773 82.7302C489.988 84.969 495.64 86.0885 501.719 86.0885C505.75 86.0885 509.387 85.7153 512.629 85.0757C515.865 84.3827 518.851 83.4232 521.576 82.0906C524.301 80.8112 526.807 79.212 529.1 77.3997C531.393 75.5873 533.6 73.5617 535.733 71.2695V71.2695ZM456.522 61.8877V61.6745C456.522 56.1307 455.141 51.813 452.374 48.668C449.612 45.5762 445.821 43.0709 441 41.2585C442.499 40.5122 443.901 39.5527 445.207 38.4333C446.508 37.3139 447.655 36.0346 448.641 34.5953C449.633 33.1027 450.422 31.5036 451.014 29.6912C451.606 27.8255 451.905 25.7466 451.905 23.4011V23.1346C451.905 16.578 449.473 11.4074 444.615 7.51608C439.752 3.62478 433.06 1.70578 424.523 1.70578H386.008V84.6492H425.473C430.138 84.6492 434.383 84.1695 438.217 83.21C442.045 82.2505 445.325 80.8645 448.049 78.9455C450.774 77.0798 452.87 74.6811 454.331 71.8559C455.792 68.9774 456.522 65.6724 456.522 61.8877V61.8877ZM433.77 26.4929C433.77 29.5313 432.586 31.7701 430.213 33.1561C427.845 34.542 424.646 35.235 420.615 35.235H403.786V17.6974H421.799C425.67 17.6974 428.635 18.4437 430.688 19.883C432.741 21.3755 433.77 23.4544 433.77 26.2263V26.4929ZM438.393 59.6489C438.393 62.7406 437.246 64.9795 434.953 66.472C432.661 67.9113 429.504 68.6576 425.473 68.6576H403.786V50.4271H424.881C429.621 50.4271 433.055 51.2266 435.193 52.8258C437.326 54.425 438.393 56.6638 438.393 59.3824V59.6489ZM374.885 84.6492V1.70578H356.868V52.7725L318.001 1.70578H301.172V84.6492H319.179V31.93L359.363 84.6492H374.885ZM293.856 60.1287V59.8621C293.856 56.2374 293.286 53.1456 292.139 50.5337C290.993 47.9217 289.292 45.6296 287.042 43.7106C284.791 41.7916 282.024 40.1391 278.744 38.7531C275.465 37.3672 271.733 36.0879 267.547 35.0217C263.99 34.0622 261.047 33.2094 258.716 32.5164C256.386 31.8234 254.552 31.0238 253.208 30.2776C251.865 29.478 250.937 28.5718 250.419 27.6123C249.908 26.5995 249.652 25.4267 249.652 24.0941V23.8809C249.652 21.802 250.542 20.0962 252.318 18.7102C254.093 17.3243 256.76 16.6313 260.316 16.6313C263.873 16.6313 267.424 17.3776 270.981 18.8169C274.537 20.3094 278.174 22.2817 281.891 24.7871L291.366 11.0876C287.1 7.676 282.418 5.06403 277.326 3.25164C272.228 1.43925 266.635 0.533053 260.551 0.533053C256.285 0.533053 252.376 1.11941 248.82 2.29214C245.268 3.46486 242.202 5.17064 239.638 7.40947C237.067 9.595 235.073 12.207 233.649 15.2987C232.226 18.3371 231.517 21.7487 231.517 25.5334V25.7466C231.517 29.8511 232.167 33.316 233.474 36.0879C234.775 38.8064 236.614 41.1519 238.982 43.0176C241.355 44.83 244.239 46.4291 247.636 47.6552C251.033 48.9345 254.824 50.1072 259.01 51.12C262.486 51.9729 265.313 52.8258 267.488 53.6254C269.658 54.3717 271.359 55.1712 272.58 55.9708C273.807 56.7704 274.639 57.6233 275.071 58.5295C275.508 59.4357 275.726 60.4485 275.726 61.6745V61.8877C275.726 64.3398 274.676 66.2588 272.586 67.6447C270.49 69.0307 267.547 69.7237 263.755 69.7237C259.015 69.7237 254.648 68.8175 250.659 67.0051C246.666 65.1927 242.778 62.7406 238.987 59.6489L228.2 72.5489C233.175 77.0798 238.71 80.3848 244.789 82.5703C250.873 84.7558 257.079 85.8219 263.398 85.8219C267.904 85.8219 272.01 85.2356 275.726 84.1162C279.438 82.9434 282.637 81.291 285.325 79.1054C288.012 76.9732 290.102 74.2546 291.606 71.0563C293.104 67.858 293.856 64.2332 293.856 60.1287V60.1287ZM222.489 84.6492V1.70578H202.818L181.009 36.7808L159.206 1.70578H139.53V84.6492H157.425V30.8639L180.535 65.939H181.009L204.359 30.4908V84.6492H222.489Z" fill="#999999"/>
</svg>
