<svg width="406" height="113" viewBox="0 0 406 113" fill="none" xmlns="http://www.w3.org/2000/svg">
<path d="M0 27.5084H24.1543L38.2191 63.6215L52.4664 27.5084H75.9846L40.5714 113H16.9042L26.598 90.3461L0 27.5084Z" fill="#999999"/>
<path d="M100.484 26.0707C82.3361 26.0707 70.8633 42.4056 70.8633 58.6726C70.8633 76.9778 83.4418 91.4905 100.14 91.4905C112.596 91.4905 117.293 83.8739 117.293 83.8739V89.8071H138.36V27.5087H117.293V33.1722C117.293 33.1722 112.053 26.0707 100.484 26.0707V26.0707ZM104.966 46.0909C113.339 46.0909 117.66 52.7408 117.66 58.7411C117.66 65.2022 113.031 71.5429 104.966 71.5429C98.2809 71.5429 92.2402 66.0604 92.2402 59.016C92.2402 51.872 97.0991 46.0909 104.966 46.0909Z" fill="#999999"/>
<path d="M145.616 89.8067V0H167.651V33.3879C167.651 33.3879 172.885 26.0784 183.846 26.0784C197.254 26.0784 205.11 36.1048 205.11 50.432V89.8067H183.236V55.8258C183.236 50.9771 180.935 46.2932 175.722 46.2932C170.416 46.2932 167.651 51.0481 167.651 55.8258V89.8067H145.616Z" fill="#999999"/>
<path d="M242.679 26.0781C221.896 26.0781 209.521 41.9387 209.521 58.9318C209.521 78.2702 224.504 91.4905 242.758 91.4905C260.45 91.4905 275.931 78.8702 275.931 59.2562C275.931 37.795 259.722 26.0781 242.679 26.0781V26.0781ZM242.878 46.2743C250.219 46.2743 255.299 52.4109 255.299 58.9549C255.299 64.5365 250.565 71.4208 242.878 71.4208C235.833 71.4208 230.547 65.7498 230.547 58.8939C230.547 52.2894 234.942 46.2743 242.878 46.2743V46.2743Z" fill="#999999"/>
<path d="M312.64 26.0781C291.857 26.0781 279.482 41.9387 279.482 58.9318C279.482 78.2702 294.466 91.4905 312.719 91.4905C330.411 91.4905 345.892 78.8702 345.892 59.2562C345.892 37.795 329.683 26.0781 312.64 26.0781V26.0781ZM312.839 46.2743C320.18 46.2743 325.26 52.4109 325.26 58.9549C325.26 64.5365 320.527 71.4208 312.839 71.4208C305.795 71.4208 300.508 65.7498 300.508 58.8939C300.508 52.2894 304.903 46.2743 312.839 46.2743V46.2743Z" fill="#999999"/>
<path d="M363.28 91.1293C371.361 91.1293 377.912 84.5547 377.912 76.4444C377.912 68.3342 371.361 61.7595 363.28 61.7595C355.199 61.7595 348.648 68.3342 348.648 76.4444C348.648 84.5547 355.199 91.1293 363.28 91.1293Z" fill="#999999"/>
<path d="M382.72 56.3652H356.378L379.757 0H406L382.72 56.3652Z" fill="#999999"/>
</svg>
