<?xml version="1.0" encoding="utf-8"?>
<svg id="svgPlaceholderImage" width="1000" height="600" viewBox="0 0 1000 600" xmlns="http://www.w3.org/2000/svg">
  <rect fill="#ddd" width="1000" height="600"/>
  <path d="M 469.457 156.427 C 469.457 211.229 410.132 245.48 362.671 218.08 C 340.645 205.362 327.077 181.861 327.077 156.427 C 327.077 101.624 386.401 67.373 433.862 94.774 C 455.888 107.491 469.457 130.993 469.457 156.427 Z M 589.769 271.841 C 584.292 269.098 577.675 270.164 573.338 274.488 L 467.691 408.613 L 391.945 329.676 C 386.306 325.921 378.804 326.659 374.005 331.441 L 270.18 455.427 L 270.18 512.38 C 270.18 528.106 282.93 540.856 298.656 540.856 L 697.323 540.856 C 713.049 540.856 725.8 528.106 725.8 512.38 L 725.8 384.236 L 589.769 271.841 Z" style="fill: rgba(0, 0, 0, 0.25);"/>
</svg>