<svg width="1200" height="1200" xmlns="http://www.w3.org/2000/svg" fill-rule="evenodd" clip-rule="evenodd"><path d="M1374 732l-214 386 286 38-72-424z" fill="#e32c23" fill-rule="nonzero" stroke="#e32c23" stroke-width="3"/><path d="M1088 504l286 228 6-324-292 96z" fill="#ec612e" fill-rule="nonzero" stroke="#ec612e" stroke-width="3"/><path d="M1160 1118l204 332 82-294-286-38z" fill="#d81420" fill-rule="nonzero" stroke="#d81420" stroke-width="3"/><path d="M1160 1118l-116 296 320 36-204-332z" fill="#db171f" fill-rule="nonzero" stroke="#db171f" stroke-width="3"/><path d="M1088 504l2 188 284 40-286-228z" fill="#f15b2a" fill-rule="nonzero" stroke="#f15b2a" stroke-width="3"/><path d="M1090 692l70 426 214-386-284-40z" fill="#f04024" fill-rule="nonzero" stroke="#f04024" stroke-width="3"/><path d="M1270 120l-182 384 292-96-110-288z" fill="#f07032" fill-rule="nonzero" stroke="#f07032" stroke-width="3"/><path d="M982-52l288 172 36-302L982-52z" fill="#f78c49" fill-rule="nonzero" stroke="#f78c49" stroke-width="3"/><path d="M988 102l100 402 182-384-282-18z" fill="#f77e38" fill-rule="nonzero" stroke="#f77e38" stroke-width="3"/><path d="M982-52l6 154 282 18L982-52z" fill="#fa8d46" fill-rule="nonzero" stroke="#fa8d46" stroke-width="3"/><path d="M764 1000l-72 306 352 108-280-414z" fill="#ee4126" fill-rule="nonzero" stroke="#ee4126" stroke-width="3"/><path d="M988 102L694 362l394 142-100-402z" fill="#fe8239" fill-rule="nonzero" stroke="#fe8239" stroke-width="3"/><path d="M752 802l12 198 326-308-338 110z" fill="#fd5b2d" fill-rule="nonzero" stroke="#fd5b2d" stroke-width="3"/><path d="M1090 692l-326 308 396 118-70-426z" fill="#f64426" fill-rule="nonzero" stroke="#f64426" stroke-width="3"/><path d="M764 1000l280 414 116-296-396-118z" fill="#ed3221" fill-rule="nonzero" stroke="#ed3221" stroke-width="3"/><path d="M694 362l58 440 336-298-394-142z" fill="#fe7935" fill-rule="nonzero" stroke="#fe7935" stroke-width="3"/><path d="M1088 504L752 802l338-110-2-188z" fill="#fa652f" fill-rule="nonzero" stroke="#fa652f" stroke-width="3"/><path d="M686 136l8 226 294-260-302 34z" fill="#ff9644" fill-rule="nonzero" stroke="#ff9644" stroke-width="3"/><path d="M690-124l-4 260L982-52l-292-72z" fill="#ffa554" fill-rule="nonzero" stroke="#ffa554" stroke-width="3"/><path d="M982-52L686 136l302-34-6-154z" fill="#ff974b" fill-rule="nonzero" stroke="#ff974b" stroke-width="3"/><path d="M694 362L464 516l288 286-58-440z" fill="#fd8c3c" fill-rule="nonzero" stroke="#fd8c3c" stroke-width="3"/><path d="M464 516l-40 130 328 156-288-286z" fill="#fd8c3c" fill-rule="nonzero" stroke="#fd8c3c" stroke-width="3"/><path d="M752 802L388 964l376 36-12-198z" fill="#fc6c31" fill-rule="nonzero" stroke="#fc6c31" stroke-width="3"/><path d="M388 964l304 342 72-306-376-36z" fill="#f5642d" fill-rule="nonzero" stroke="#f5642d" stroke-width="3"/><path d="M388 964l136 412 168-70-304-342z" fill="#f0632d" fill-rule="nonzero" stroke="#f0632d" stroke-width="3"/><path d="M424 646l-36 318 364-162-328-156z" fill="#fe7f37" fill-rule="nonzero" stroke="#fe7f37" stroke-width="3"/><path d="M392 42l294 94 4-260L392 42z" fill="#ffb358" fill-rule="nonzero" stroke="#ffb358" stroke-width="3"/><path d="M686 136L392 42l302 320-8-226z" fill="#ffa84c" fill-rule="nonzero" stroke="#ffa84c" stroke-width="3"/><path d="M392 42l72 474 230-154L392 42z" fill="#fea546" fill-rule="nonzero" stroke="#fea546" stroke-width="3"/><path d="M388-232l4 274 298-166-302-108z" fill="#ffbe63" fill-rule="nonzero" stroke="#ffbe63" stroke-width="3"/><path d="M388-232L254-120 392 42l-4-274z" fill="#ffc768" fill-rule="nonzero" stroke="#ffc768" stroke-width="3"/><path d="M392 42L212 198l252 318-72-474z" fill="#feb24e" fill-rule="nonzero" stroke="#feb24e" stroke-width="3"/><path d="M388 964L50 1412l474-36-136-412z" fill="#f07233" fill-rule="nonzero" stroke="#f07233" stroke-width="3"/><path d="M64 940l-14 472 338-448-324-24z" fill="#f9833e" fill-rule="nonzero" stroke="#f9833e" stroke-width="3"/><path d="M124 676l264 288 36-318-300 30z" fill="#fe913e" fill-rule="nonzero" stroke="#fe913e" stroke-width="3"/><path d="M212 198l-72 296 324 22-252-318z" fill="#feae4b" fill-rule="nonzero" stroke="#feae4b" stroke-width="3"/><path d="M140 494l284 152 40-130-324-22z" fill="#fea044" fill-rule="nonzero" stroke="#fea044" stroke-width="3"/><path d="M124 676L64 940l324 24-264-288z" fill="#ff9043" fill-rule="nonzero" stroke="#ff9043" stroke-width="3"/><path d="M140 494l-16 182 300-30-284-152z" fill="#fea449" fill-rule="nonzero" stroke="#fea449" stroke-width="3"/><path d="M254-120l-42 318L392 42 254-120z" fill="#fec45f" fill-rule="nonzero" stroke="#fec45f" stroke-width="3"/><path d="M-142 1094l192 318 14-472-206 154z" fill="#f88d48" fill-rule="nonzero" stroke="#f88d48" stroke-width="3"/><path d="M-182 156l394 42 42-318-436 276z" fill="#ffce6a" fill-rule="nonzero" stroke="#ffce6a" stroke-width="3"/><path d="M-174-240l-8 396 436-276-428-120z" fill="#fedc7e" fill-rule="nonzero" stroke="#fedc7e" stroke-width="3"/><path d="M-122 458l262 36 72-296-334 260z" fill="#ffbc59" fill-rule="nonzero" stroke="#ffbc59" stroke-width="3"/><path d="M-182 156l60 302 334-260-394-42z" fill="#ffc965" fill-rule="nonzero" stroke="#ffc965" stroke-width="3"/><path d="M-168 824L64 940l60-264-292 148z" fill="#ffa151" fill-rule="nonzero" stroke="#ffa151" stroke-width="3"/><path d="M-122 458l246 218 16-182-262-36z" fill="#ffb457" fill-rule="nonzero" stroke="#ffb457" stroke-width="3"/><path d="M-122 458l-46 366 292-148-246-218z" fill="#ffb15b" fill-rule="nonzero" stroke="#ffb15b" stroke-width="3"/><path d="M-142 1094l96 360 96-42-192-318z" fill="#ef884c" fill-rule="nonzero" stroke="#ef884c" stroke-width="3"/><path d="M-168 824l26 270L64 940l-232-116z" fill="#ff9a53" fill-rule="nonzero" stroke="#ff9a53" stroke-width="3"/></svg>